<svg height="496pt" viewBox="0 0 496 496" width="496pt" xmlns="http://www.w3.org/2000/svg"><path fill="#0A57f4" d="m472 112h-40v-104c0-4.414062-3.574219-8-8-8h-352c-4.425781 0-8 3.585938-8 8v104h-40c-13.230469 0-24 10.769531-24 24v240c0 13.230469 10.769531 24 24 24h160v32h-8c-30.871094 0-56 25.128906-56 56 0 4.425781 3.574219 8 8 8h240c4.425781 0 8-3.574219 8-8 0-30.871094-25.128906-56-56-56h-8v-32h160c13.230469 0 24-10.769531 24-24v-240c0-13.230469-10.769531-24-24-24zm-392-32h336v272h-336zm336-64v48h-336v-48zm-56.808594 464h-222.382812c3.71875-18.230469 19.871094-32 39.191406-32h144c19.320312 0 35.480469 13.769531 39.191406 32zm-63.191406-48h-96v-32h96zm184-56c0 4.414062-3.585938 8-8 8h-448c-4.414062 0-8-3.585938-8-8v-240c0-4.40625 3.585938-8 8-8h40v232c0 4.425781 3.574219 8 8 8h352c4.425781 0 8-3.574219 8-8v-232h40c4.414062 0 8 3.59375 8 8zm0 0"/><path fill="#0A57f4" d="m96 32h16v16h-16zm0 0"/><path fill="#0A57f4" d="m128 32h16v16h-16zm0 0"/><path fill="#0A57f4" d="m160 32h16v16h-16zm0 0"/><path fill="#0A57f4" d="m192 32h208v16h-208zm0 0"/><path fill="#0A57f4" d="m376 120c-10.414062 0-19.214844 6.710938-22.527344 16h-36.066406l-13.980469-34.976562c-1.273437-3.183594-4.472656-5.230469-7.882812-5.015626-3.4375.199219-6.359375 2.566407-7.261719 5.878907l-17.050781 62.503906-7.644531-22.933594c-1.089844-3.257812-4.136719-5.457031-7.585938-5.457031h-19.054688l-13.792968-27.574219c-1.390625-2.785156-4.175782-4.539062-7.390625-4.417969-3.121094.089844-5.890625 1.984376-7.121094 4.839844l-15.144531 35.320313-9.816406-34.367188c-.902344-3.167969-3.671876-5.464843-6.953126-5.769531-3.359374-.335938-6.421874 1.441406-7.894531 4.382812l-13.777343 27.585938h-12.527344c-3.3125-9.289062-12.113282-16-22.527344-16-13.230469 0-24 10.769531-24 24s10.769531 24 24 24c10.414062 0 19.214844-6.710938 22.527344-16h17.472656c3.03125 0 5.800781-1.710938 7.160156-4.425781l6.808594-13.605469 10.34375 36.222656c.925781 3.257813 3.816406 5.570313 7.183594 5.785156 3.488281.191407 6.519531-1.730468 7.855468-4.832031l17.199219-40.152343 8.289063 16.574218c1.359375 2.722656 4.128906 4.433594 7.160156 4.433594h18.230469l14.175781 42.527344c1.097656 3.28125 4.152344 5.472656 7.59375 5.472656h.214844c3.519531-.097656 6.570312-2.488281 7.503906-5.886719l17.722656-64.976562 7.132813 17.839843c1.21875 3.03125 4.152343 5.023438 7.425781 5.023438h41.472656c3.3125 9.289062 12.113282 16 22.527344 16 13.230469 0 24-10.769531 24-24s-10.769531-24-24-24zm-256 32c-4.414062 0-8-3.59375-8-8s3.585938-8 8-8 8 3.59375 8 8-3.585938 8-8 8zm256 0c-4.414062 0-8-3.59375-8-8s3.585938-8 8-8 8 3.59375 8 8-3.585938 8-8 8zm0 0"/><path fill="#0A57f4" d="m160 208c-35.289062 0-64 28.710938-64 64s28.710938 64 64 64 64-28.710938 64-64-28.710938-64-64-64zm47.28125 56h-39.28125v-39.28125c20.054688 3.394531 35.886719 19.226562 39.28125 39.28125zm-55.28125-39.28125v32.328125l-26.886719-17.917969c7.023438-7.441406 16.367188-12.632812 26.886719-14.410156zm8 95.28125c-26.472656 0-48-21.527344-48-48 0-6.976562 1.527344-13.59375 4.214844-19.574219l39.34375 26.230469.082031-.121094c1.269531.847656 2.710937 1.464844 4.359375 1.464844h47.28125c-3.832031 22.664062-23.546875 40-47.28125 40zm0 0"/><path fill="#0A57f4" d="m240 296h16v40h-16zm0 0"/><path fill="#0A57f4" d="m272 264h16v72h-16zm0 0"/><path fill="#0A57f4" d="m304 232h16v104h-16zm0 0"/><path fill="#0A57f4" d="m336 280h16v56h-16zm0 0"/><path fill="#0A57f4" d="m368 200h16v136h-16zm0 0"/></svg>