<svg height="512pt" viewBox="-48 0 512 512" width="512pt" xmlns="http://www.w3.org/2000/svg"><path fill="#0A57f4" d="m360 40h-304c-4.414062 0-8 3.574219-8 8v24h16v-16h288v408h-24v16h32c4.414062 0 8-3.574219 8-8v-424c0-4.425781-3.585938-8-8-8zm0 0"/><path fill="#0A57f4" d="m408 0h-288c-4.414062 0-8 3.574219-8 8v24h16v-16h272v416h-24v16h32c4.414062 0 8-3.574219 8-8v-432c0-4.425781-3.585938-8-8-8zm0 0"/><path fill="#0A57f4" d="m312 80h-304c-4.414062 0-8 3.574219-8 8v416c0 4.425781 3.585938 8 8 8h304c4.414062 0 8-3.574219 8-8v-416c0-4.425781-3.585938-8-8-8zm-8 416h-288v-400h216.105469l.65625 48.703125c.175781 12.839844 10.765625 23.296875 23.613281 23.296875 13.023438 0 23.625-10.59375 23.625-23.617188v-32.382812h-16v32.382812c0 4.203126-3.414062 7.617188-7.625 7.617188-4.144531 0-7.558594-3.375-7.613281-7.511719l-.648438-48.488281h55.886719zm0 0"/><path fill="#0A57f4" d="m164.910156 423.808594 51.664063-40.167969c30.136719-23.425781 47.425781-58.753906 47.425781-96.921875v-54.703125c0-2.855469-1.519531-5.503906-4-6.925781l-96-55.425782c-2.480469-1.425781-5.519531-1.425781-8 0l-96 55.425782c-2.480469 1.429687-4 4.070312-4 6.925781v54.703125c0 38.167969 17.289062 73.503906 47.425781 96.921875l51.664063 40.167969c1.445312 1.128906 3.175781 1.6875 4.910156 1.6875s3.464844-.566406 4.910156-1.6875zm-51.671875-52.792969c-26.207031-20.375-41.238281-51.105469-41.238281-84.296875v-50.085938l88-50.808593 88 50.808593v50.085938c0 33.191406-15.03125 63.921875-41.238281 84.296875l-46.761719 36.34375zm0 0"/><path fill="#0A57f4" d="m208 352v-72c0-4.425781-3.585938-8-8-8h-8v-16c0-17.648438-14.351562-32-32-32s-32 14.351562-32 32v16h-8c-4.414062 0-8 3.574219-8 8v72c0 4.425781 3.585938 8 8 8h80c4.414062 0 8-3.574219 8-8zm-64-96c0-8.824219 7.175781-16 16-16s16 7.175781 16 16v16h-32zm48 88h-64v-56h64zm0 0"/><path fill="#0A57f4" d="m152 304h16v24h-16zm0 0"/><path fill="#0A57f4" d="m48 128h64v16h-64zm0 0"/><path fill="#0A57f4" d="m128 128h32v16h-32zm0 0"/><path fill="#0A57f4" d="m48 160h64v16h-64zm0 0"/><path fill="#0A57f4" d="m208 448h64v16h-64zm0 0"/><path fill="#0A57f4" d="m160 448h32v16h-32zm0 0"/><path fill="#0A57f4" d="m208 416h64v16h-64zm0 0"/></svg>