<svg height="511pt" viewBox="1 0 511.999 511" width="511pt" xmlns="http://www.w3.org/2000/svg"><path fill="#0A57f4" d="m504.394531 431.449219h-24.851562v-270.171875c0-26.273438-21.378907-47.652344-47.652344-47.652344h-6.574219c3.925782-29.050781 4.003906-49.117188 4.003906-50.550781 0-3.277344-2.097656-6.1875-5.210937-7.21875l-165.714844-54.96875c-1.554687-.515625-3.234375-.515625-4.789062 0l-165.714844 54.96875c-3.109375 1.03125-5.210937 3.941406-5.210937 7.21875 0 1.433593.082031 21.5 4.003906 50.550781h-6.574219c-26.273437 0-47.652344 21.378906-47.652344 47.652344v270.171875h-24.851562c-4.203125 0-7.605469 3.40625-7.605469 7.605469v10.660156c0 33.8125 27.507812 61.320312 61.320312 61.320312h389.359376c33.8125 0 61.320312-27.507812 61.320312-61.320312v-10.660156c0-4.199219-3.402344-7.605469-7.605469-7.605469zm-202.1875 15.210937c-1.203125 8.582032-8.59375 15.207032-17.5 15.207032h-57.414062c-8.910157 0-16.296875-6.625-17.503907-15.207032zm-46.207031-430.546875 157.984375 52.40625c-.566406 16.101563-3.636719 65.582031-20.226563 117.460938-11.71875 36.65625-27.789062 67.210937-47.757812 90.8125-24.296875 28.71875-54.566406 47.203125-90 54.960937-35.367188-7.746094-65.601562-26.183594-89.875-54.816406-19.960938-23.546875-36.035156-54.035156-47.769531-90.613281-16.660157-51.917969-19.761719-101.652344-20.335938-117.804688zm-208.332031 145.164063c0-17.890625 14.550781-32.445313 32.441406-32.445313h8.875c.816406 4.90625 1.742187 9.988281 2.789063 15.210938h-11.664063c-9.503906 0-17.234375 7.730469-17.234375 17.234375v247.363281c0 4.199219 3.402344 7.601563 7.605469 7.601563h371.042969c4.199218 0 7.601562-3.402344 7.601562-7.601563v-43.757813c0-4.199218-3.402344-7.605468-7.601562-7.605468-4.203126 0-7.605469 3.40625-7.605469 7.605468v36.152344h-355.835938v-239.757812c0-1.117188.910157-2.027344 2.027344-2.027344h14.980469c2.398437 10.160156 5.253906 20.691406 8.667968 31.367188 12.332032 38.566406 29.371094 70.867187 50.632813 96 26.894531 31.785156 60.554687 52.09375 100.054687 60.359374.511719.105469 1.035157.160157 1.554688.160157.523438 0 1.042969-.054688 1.558594-.160157 39.496094-8.265624 73.160156-28.574218 100.050781-60.359374 21.269531-25.136719 38.300781-57.433594 50.636719-96 3.410156-10.675782 6.269531-21.207032 8.667968-31.367188h14.976563c1.117187 0 2.027344.910156 2.027344 2.027344v178.257812c0 4.199219 3.402343 7.601563 7.601562 7.601563 4.203125 0 7.605469-3.402344 7.605469-7.601563v-178.257812c0-9.503906-7.730469-17.234375-17.234375-17.234375h-11.664063c1.046876-5.222657 1.972657-10.304688 2.792969-15.210938h8.871094c17.890625 0 32.441406 14.554688 32.441406 32.445313v270.171875h-416.664062zm449.125 288.4375c0 25.425781-20.6875 46.113281-46.113281 46.113281h-389.359376c-25.425781 0-46.113281-20.6875-46.113281-46.113281v-3.054688h179.304688c1.269531 16.980469 15.480469 30.414063 32.78125 30.414063h57.414062c17.300781 0 31.511719-13.433594 32.78125-30.414063h179.304688zm0 0"/><path fill="#0A57f4" d="m150.652344 217.984375c1.789062 3.800781 6.316406 5.425781 10.117187 3.636719 3.800781-1.792969 5.425781-6.324219 3.636719-10.121094-5.152344-10.921875-9.84375-22.972656-13.949219-35.816406-10.050781-31.429688-14.726562-61.75-16.902343-83.320313l122.445312-40.617187 122.410156 40.605468c-2.242187 22.09375-7.039062 53.078126-17.320312 84.746094-21.441406 66.046875-56.796875 106.347656-105.089844 119.828125-32.796875-9.15625-59.800781-30.796875-80.285156-64.34375-2.1875-3.585937-6.871094-4.71875-10.453125-2.527343-3.585938 2.1875-4.714844 6.867187-2.527344 10.453124 23.003906 37.675782 53.734375 61.78125 91.335937 71.648438.632813.167969 1.28125.25 1.929688.25s1.296875-.082031 1.929688-.25c54.617187-14.332031 94.191406-58.191406 117.625-130.363281 11.683593-36 16.546874-71.035157 18.570312-94.089844.304688-3.507813-1.839844-6.773437-5.183594-7.882813l-130.546875-43.300781c-1.554687-.515625-3.234375-.515625-4.789062 0l-130.582031 43.3125c-3.34375 1.109375-5.484376 4.367188-5.179688 7.878907 1.953125 22.488281 6.683594 56.8125 18.128906 92.601562 4.304688 13.476562 9.242188 26.148438 14.679688 37.671875zm0 0"/><path fill="#0A57f4" d="m256 228.800781c6.332031 0 11.886719-5.554687 11.886719-11.886719 0-6.441406-5.441407-11.886718-11.886719-11.886718-6.664062 0-11.882812 5.21875-11.882812 11.886718 0 6.554688 5.332031 11.886719 11.882812 11.886719zm0 0"/><path fill="#0A57f4" d="m255.828125 192.832031c3.324219 0 8.601563-1.820312 8.601563-6.699219 0-11.410156.613281-24.945312 1.207031-38.039062.597656-13.09375 1.210937-26.632812 1.210937-38.046875 0-5.675781-4.53125-9.640625-11.019531-9.640625s-10.847656 3.875-10.847656 9.640625c0 11.414063.570312 24.953125 1.121093 38.046875.554688 13.09375 1.125 26.628906 1.125 38.039062 0 4.195313 3.214844 6.699219 8.601563 6.699219zm0 0"/></svg>