<?xml version="1.0" encoding="iso-8859-1"?>
<!-- Generator: Adobe Illustrator 19.0.0, SVG Export Plug-In . SVG Version: 6.00 Build 0)  -->
<svg version="1.1" id="Capa_1" xmlns="http://www.w3.org/2000/svg" xmlns:xlink="http://www.w3.org/1999/xlink" x="0px" y="0px"
	 viewBox="0 0 512 512" style="enable-background:new 0 0 512 512;" xml:space="preserve">
<g>
	<g>
		<g>
			<polygon fill="#0A57f4" points="27.159,159.833 12.021,159.833 12.021,512 276.034,512 276.034,496.862 27.159,496.862 			"/>
			<path fill="#0A57f4" d="M27.159,87.263h56.987v24.042h287.61V87.263h40.96v72.57h15.138V72.125h-56.097V48.084H339.7V0H116.201v48.084H84.145
				v24.042H12.021v63.666h15.138V87.263z M99.283,63.221h104.626V48.084h-72.57V15.138h193.223v48.084h32.056v32.946H99.283V63.221z
				"/>
			<path fill="#0A57f4" d="M387.783,242.587v-19.089h40.07v-47.193h-40.07v-40.07H52.091V471.93h183.874v-15.138H67.228V151.373h305.418v24.932
				h-72.125v47.193h40.07v19.089c-64.419,11.244-112.195,67.543-112.195,133.621c0,34.061,12.659,66.642,35.653,91.75
				C289.757,495.947,326.256,512,364.188,512c74.875,0,135.792-60.915,135.792-135.792
				C499.978,310.13,452.203,253.831,387.783,242.587z M315.659,208.361v-16.918h97.057v16.918H315.659z M364.188,496.862
				c-33.705,0-66.141-14.268-88.982-39.135c-20.424-22.302-31.671-51.251-31.671-81.518c0-60.702,45.38-112.115,105.559-119.59
				l6.636-0.823V223.5h16.918v32.296l6.636,0.823c60.179,7.475,105.559,58.888,105.559,119.59
				C484.84,442.737,430.716,496.862,364.188,496.862z"/>
			<path fill="#0A57f4" d="M452.785,376.208L452.785,376.208c0,48.853-39.745,88.597-88.598,88.597c-48.854,0-88.598-39.745-88.598-88.597
				s39.745-88.598,88.598-88.598c40.464,0,75.75,27.322,85.81,66.442l14.66-3.77c-11.78-45.813-53.095-77.809-100.47-77.809
				c-57.199,0-103.736,46.535-103.736,103.736c0,57.2,46.535,103.735,103.736,103.735s103.736-46.535,103.736-103.735H452.785z"/>
			<rect fill="#0A57f4" x="219.941" y="48.084" width="16.028" height="15.138"/>
			<rect fill="#0A57f4" x="251.993" y="48.084" width="16.028" height="15.138"/>
			<rect fill="#0A57f4" x="284.044" y="48.084" width="16.028" height="15.138"/>
			<polygon fill="#0A57f4" points="356.619,320.111 356.619,387.357 398.904,429.644 409.608,418.939 371.756,381.087 371.756,320.111 			"/>
			<rect fill="#0A57f4" x="179.866" y="184.317" width="72.126" height="15.138"/>
			<rect fill="#0A57f4" x="179.866" y="216.379" width="16.028" height="15.138"/>
			<rect fill="#0A57f4" x="211.928" y="216.379" width="16.028" height="15.138"/>
			<rect fill="#0A57f4" x="179.866" y="272.469" width="72.126" height="15.138"/>
			<rect fill="#0A57f4" x="179.866" y="304.531" width="16.028" height="15.138"/>
			<rect fill="#0A57f4" x="211.928" y="304.531" width="16.028" height="15.138"/>
			<path fill="#0A57f4" d="M163.394,184.32h-63.221v63.221h63.221V184.32z M148.257,232.403h-32.946v-32.946h32.946V232.403z"/>
			<path fill="#0A57f4" d="M163.394,272.472h-63.221v63.221h63.221V272.472z M148.257,320.556h-32.946V287.61h32.946V320.556z"/>
			<path fill="#0A57f4" d="M100.173,423.846h63.221v-63.221h-63.221V423.846z M115.311,375.763h32.946v32.946h-32.946V375.763z"/>
			<rect fill="#0A57f4" x="179.866" y="360.622" width="24.042" height="15.138"/>
			<rect fill="#0A57f4" x="179.866" y="392.683" width="16.028" height="15.138"/>
		</g>
	</g>
</g>
<g>
</g>
<g>
</g>
<g>
</g>
<g>
</g>
<g>
</g>
<g>
</g>
<g>
</g>
<g>
</g>
<g>
</g>
<g>
</g>
<g>
</g>
<g>
</g>
<g>
</g>
<g>
</g>
<g>
</g>
</svg>
