<svg height="512pt" viewBox="-60 0 512 512" width="512pt" xmlns="http://www.w3.org/2000/svg"><path fill="#0A57f4" d="m151.796875 472.921875h-32.0625c-4.152344 0-7.515625 3.367187-7.515625 7.515625 0 4.152344 3.363281 7.515625 7.515625 7.515625h32.0625c4.148437 0 7.515625-3.363281 7.515625-7.515625 0-4.148438-3.367188-7.515625-7.515625-7.515625zm0 0"/><path fill="#0A57f4" d="m127.75 39.078125h16.03125c4.148438 0 7.515625-3.367187 7.515625-7.515625 0-4.152344-3.367187-7.515625-7.515625-7.515625h-16.03125c-4.152344 0-7.515625 3.363281-7.515625 7.515625 0 4.148438 3.363281 7.515625 7.515625 7.515625zm0 0"/><path fill="#0A57f4" d="m368.21875 112.21875h-96.6875v-88.671875c0-12.984375-10.5625-23.546875-23.546875-23.546875h-224.4375c-12.984375 0-23.546875 10.5625-23.546875 23.546875v464.90625c0 12.984375 10.5625 23.546875 23.546875 23.546875h224.4375c12.984375 0 23.546875-10.5625 23.546875-23.546875v-136.765625h96.6875c12.984375 0 23.546875-10.5625 23.546875-23.546875v-192.375c0-12.984375-10.5625-23.546875-23.546875-23.546875zm-344.671875-97.1875h224.4375c4.695313 0 8.515625 3.820312 8.515625 8.515625v24.546875h-241.46875v-24.546875c0-4.695313 3.820312-8.515625 8.515625-8.515625zm224.4375 481.9375h-224.4375c-4.695313 0-8.515625-3.820312-8.515625-8.515625v-24.546875h241.46875v24.546875c0 4.695313-3.820312 8.515625-8.515625 8.515625zm128.75-168.828125c0 4.695313-3.820313 8.515625-8.515625 8.515625h-192.375c-1.625 0-3.207031.527344-4.507812 1.503906l-52.101563 39.078125v-181.355469c0-4.148437-3.367187-7.515624-7.515625-7.515624-4.152344 0-7.515625 3.367187-7.515625 7.515624v196.382813c0 6.058594 7.15625 9.664063 12.023437 6.011719l62.121094-46.589844h78.152344v97.1875h-241.46875v-385.75h241.46875v49.09375h-128.75c-12.984375 0-23.546875 10.5625-23.546875 23.546875v24.046875c0 4.148438 3.363281 7.515625 7.515625 7.515625 4.148438 0 7.515625-3.367187 7.515625-7.515625v-24.046875c0-4.695313 3.820313-8.515625 8.515625-8.515625h240.46875c4.695312 0 8.515625 3.820312 8.515625 8.515625zm0 0"/><path fill="#0A57f4" d="m312.109375 280.546875h-7.484375c-1.035156-.410156-9.046875-4.542969-9.046875-32.5625 0-55.359375-29.820313-63.625-47.59375-63.625s-47.59375 8.265625-47.59375 63.625c0 28.019531-8.011719 32.152344-9.046875 32.5625h-7.484375c-4.148437 0-7.515625 3.367187-7.515625 7.515625s3.367188 7.515625 7.515625 7.515625h40.59375c-.003906.167969-.015625.332031-.015625.5 0 12.984375 10.5625 23.546875 23.546875 23.546875s23.546875-10.5625 23.546875-23.546875c0-.167969-.015625-.332031-.019531-.5h40.597656c4.148437 0 7.515625-3.367187 7.515625-7.515625s-3.367188-7.515625-7.515625-7.515625zm-55.609375 15.53125c0 4.695313-3.820312 8.515625-8.515625 8.515625s-8.515625-3.820312-8.515625-8.515625c0-.167969.019531-.332031.03125-.5h16.964844c.011718.167969.035156.332031.035156.5zm-46.496094-15.53125c3.140625-7.042969 5.417969-17.386719 5.417969-32.5625 0-48.59375 24.507813-48.59375 32.5625-48.59375s32.5625 0 32.5625 48.59375c0 15.175781 2.277344 25.519531 5.417969 32.5625zm0 0"/><path fill="#0A57f4" d="m296.078125 184.359375c-4.148437 0-7.515625 3.367187-7.515625 7.515625s3.367188 7.515625 7.515625 7.515625c9.117187 0 16.53125 7.414063 16.53125 16.53125 0 4.148437 3.367187 7.515625 7.515625 7.515625s7.515625-3.367188 7.515625-7.515625c0-17.402344-14.160156-31.5625-31.5625-31.5625zm0 0"/><path fill="#0A57f4" d="m296.078125 152.296875c-4.148437 0-7.515625 3.363281-7.515625 7.515625 0 4.148438 3.367188 7.515625 7.515625 7.515625 26.796875 0 48.59375 21.796875 48.59375 48.59375 0 4.148437 3.367187 7.515625 7.515625 7.515625 4.152344 0 7.515625-3.367188 7.515625-7.515625 0-35.082031-28.542969-63.625-63.625-63.625zm0 0"/><path fill="#0A57f4" d="m183.359375 215.921875c0-9.117187 7.414063-16.53125 16.53125-16.53125 4.148437 0 7.515625-3.367187 7.515625-7.515625s-3.367188-7.515625-7.515625-7.515625c-17.402344 0-31.5625 14.160156-31.5625 31.5625 0 4.148437 3.363281 7.515625 7.515625 7.515625 4.148438 0 7.515625-3.367188 7.515625-7.515625zm0 0"/><path fill="#0A57f4" d="m207.40625 159.8125c0-4.152344-3.367188-7.515625-7.515625-7.515625-35.082031 0-63.625 28.542969-63.625 63.625 0 4.148437 3.363281 7.515625 7.515625 7.515625 4.148438 0 7.515625-3.367188 7.515625-7.515625 0-26.796875 21.796875-48.59375 48.59375-48.59375 4.148437 0 7.515625-3.367187 7.515625-7.515625zm0 0"/></svg>