<svg height="480pt" viewBox="-72 0 480 480" width="480pt" xmlns="http://www.w3.org/2000/svg"><path fill="#0A57f4" d="m80.003906 472c0 4.417969 3.582032 8 8 8h160c4.417969 0 8-3.582031 8-8v-240c0-4.417969-3.582031-8-8-8h-160c-4.417968 0-8 3.582031-8 8zm16-232h144v224h-144zm0 0"/><path fill="#0A57f4" d="m136.003906 176c0 17.671875 14.324219 32 32 32 17.671875 0 32-14.328125 32-32s-14.328125-32-32-32c-17.675781 0-32 14.328125-32 32zm48 0c0 8.835938-7.164062 16-16 16-8.839844 0-16-7.164062-16-16s7.160156-16 16-16c8.835938 0 16 7.164062 16 16zm0 0"/><path fill="#0A57f4" d="m248.003906 144c3.1875 0 6.070313-1.894531 7.335938-4.820312 1.265625-2.925782.675781-6.324219-1.503906-8.652344-30.808594-32.863282-76.90625-34.527344-85.832032-34.527344-32.089844-.488281-63.023437 11.957031-85.832031 34.527344-2.046875 2.066406-2.808594 5.082031-1.992187 7.875.816406 2.792968 3.085937 4.917968 5.921874 5.558594 2.839844.636718 5.800782-.316407 7.734376-2.488282 19.855468-19.242187 46.519531-29.839844 74.167968-29.472656 4.757813 0 47.308594.800781 74.167969 29.472656 1.507813 1.617188 3.621094 2.53125 5.832031 2.527344zm0 0"/><path fill="#0A57f4" d="m293.472656 109.832031c3.222656-3.023437 3.382813-8.082031.363282-11.304687-45.089844-48.085938-112.730469-50.527344-125.832032-50.527344-47.03125-.742188-92.378906 17.46875-125.832031 50.527344-2.046875 2.066406-2.808594 5.082031-1.992187 7.875.816406 2.792968 3.085937 4.917968 5.921874 5.558594 2.839844.636718 5.800782-.316407 7.734376-2.488282 30.554687-29.640625 71.597656-45.988281 114.167968-45.472656 7.320313 0 72.726563 1.28125 114.167969 45.472656 3.019531 3.21875 8.082031 3.378906 11.300781.359375zm0 0"/><path fill="#0A57f4" d="m334.25 61c2.761719-3.449219 2.203125-8.488281-1.246094-11.246094-59.203125-47.355468-147.832031-49.753906-165-49.753906-97.847656 0-154.617187 41.449219-165 49.753906-3.453125 2.757813-4.011718 7.796875-1.25 11.246094 2.761719 3.449219 7.796875 4.007812 11.25 1.246094 5.910156-4.734375 60.535156-46.246094 155-46.246094 9.949219 0 98.8125 1.296875 155 46.246094 3.449219 2.765625 8.484375 2.207031 11.246094-1.246094zm0 0"/><path fill="#0A57f4" d="m112.003906 256v152c0 4.417969 3.582032 8 8 8h96c4.417969 0 8-3.582031 8-8v-152zm96 144h-80v-128h80zm0 0"/><path fill="#0A57f4" d="m184.003906 432h-32c-4.417968 0-8 3.582031-8 8s3.582032 8 8 8h32c4.417969 0 8-3.582031 8-8s-3.582031-8-8-8zm0 0"/></svg>