<svg xmlns:dc="http://purl.org/dc/elements/1.1/" xmlns:cc="http://creativecommons.org/ns#" xmlns:rdf="http://www.w3.org/1999/02/22-rdf-syntax-ns#" xmlns:svg="http://www.w3.org/2000/svg" xmlns="http://www.w3.org/2000/svg" xmlns:sodipodi="http://sodipodi.sourceforge.net/DTD/sodipodi-0.dtd" xmlns:inkscape="http://www.inkscape.org/namespaces/inkscape" width="192.69421498025264" height="184.10743968404228" version="1.1" inkscape:version="0.92.3 (2405546, 2018-03-11)" sodipodi:docname="agile.svg"><rect id="backgroundrect" width="100%" height="100%" x="0" y="0" fill="none" stroke="none" class="selected" style=""/>
  <defs id="defs1655">
    <filter style="color-interpolation-filters:sRGB" id="filter2187-5" x="-0.033043455332517624" width="1.0660868883132935" y="-0.03953760489821434" height="1.0790752172470093">
      <feGaussianBlur stdDeviation="0.73998203" id="feGaussianBlur2189-5"/>
    </filter>
  </defs>
  <sodipodi:namedview id="base" pagecolor="#ffffff" bordercolor="#666666" borderopacity="1.0" inkscape:pageopacity="0.0" inkscape:pageshadow="2" inkscape:zoom="1.4" inkscape:cx="459.78451" inkscape:cy="541.42736" inkscape:document-units="mm" inkscape:current-layer="layer1-0" showgrid="false" inkscape:window-width="1920" inkscape:window-height="1018" inkscape:window-x="-8" inkscape:window-y="-8" inkscape:window-maximized="1"/>
  <metadata id="metadata1658">
    <rdf:RDF>
      <cc:Work rdf:about="">
        <dc:format>image/svg+xml</dc:format>
        <dc:type rdf:resource="http://purl.org/dc/dcmitype/StillImage"/>
        <dc:title/>
      </cc:Work>
    </rdf:RDF>
  </metadata>
  
<g class="currentLayer" style=""><title>Layer 1</title><g inkscape:label="Layer 1" inkscape:groupmode="layer" id="layer1" class="">
    <g id="layer1-6">
      <g id="layer1-4">
        <g id="layer1-0">
          <g id="layer1-3">
            <flowRoot transform="translate(-0.8264462351799011,-54.54545211791992) translate(2.954637289047241,16.32334327697754) translate(421.44744873046875,-52.50319290161133) translate(-292.8663635253906,-14.46895980834961) translate(-163.6636962890625,14.3630952835083) translate(36.19094467163086,-348.53564453125) " style="font-style:normal;font-weight:normal;font-size:13.33333302px;line-height:1.25;font-family:sans-serif;letter-spacing:0px;word-spacing:0px;fill:#000000;fill-opacity:1;stroke:none" id="flowRoot2217" xml:space="preserve"><flowRegion id="flowRegion2219"><rect y="2460.971923828125" x="-515.1777954101562" height="17.17259407043457" width="93.94418334960938" id="rect2221"/></flowRegion><flowPara id="flowPara2223"/></flowRoot>            <flowRoot transform="translate(-0.8264462351799011,-54.54545211791992) translate(2.954637289047241,16.32334327697754) translate(421.44744873046875,-52.50319290161133) translate(-292.8663635253906,-14.46895980834961) translate(-163.6636962890625,14.3630952835083) translate(36.19094467163086,-348.53564453125) " style="font-style:normal;font-weight:normal;font-size:13.33333302px;line-height:1.25;font-family:sans-serif;letter-spacing:0px;word-spacing:0px;fill:#000000;fill-opacity:1;stroke:none" id="flowRoot2237" xml:space="preserve"><flowRegion id="flowRegion2239"><rect y="2397.332275390625" x="-137.38075256347656" height="15.152288436889648" width="57.57869338989258" id="rect2241"/></flowRegion><flowPara id="flowPara2243"/></flowRoot>            <flowRoot transform="translate(-0.8264462351799011,-54.54545211791992) translate(2.954637289047241,16.32334327697754) translate(421.44744873046875,-52.50319290161133) translate(-292.8663635253906,-14.46895980834961) translate(-163.6636962890625,14.3630952835083) translate(31.96112632751465,-353.9936828613281) " style="font-style:normal;font-weight:normal;font-size:13.33333302px;line-height:1.25;font-family:sans-serif;letter-spacing:0px;word-spacing:0px;fill:#000000;fill-opacity:1;stroke:none" id="flowRoot2217-0" xml:space="preserve"><flowRegion id="flowRegion2219-7"><rect y="2460.971923828125" x="-515.1777954101562" height="17.17259407043457" width="93.94418334960938" id="rect2221-5"/></flowRegion><flowPara id="flowPara2223-1"/></flowRoot>            <flowRoot transform="translate(-0.8264462351799011,-54.54545211791992) translate(2.954637289047241,16.32334327697754) translate(421.44744873046875,-52.50319290161133) translate(-292.8663635253906,-14.46895980834961) translate(-163.6636962890625,14.3630952835083) translate(31.96112632751465,-353.9936828613281) " style="font-style:normal;font-weight:normal;font-size:13.33333302px;line-height:1.25;font-family:sans-serif;letter-spacing:0px;word-spacing:0px;fill:#000000;fill-opacity:1;stroke:none" id="flowRoot2237-0" xml:space="preserve"><flowRegion id="flowRegion2239-0"><rect y="2397.332275390625" x="-137.38075256347656" height="15.152288436889648" width="57.57869338989258" id="rect2241-7"/></flowRegion><flowPara id="flowPara2243-3"/></flowRoot>            <flowRoot transform="translate(-0.8264462351799011,-54.54545211791992) translate(2.954637289047241,16.32334327697754) translate(421.44744873046875,-52.50319290161133) translate(-292.8663635253906,-14.46895980834961) translate(-163.6636962890625,14.3630952835083) translate(38.69761276245117,-344.7345275878906) " style="font-style:normal;font-weight:normal;font-size:13.33333302px;line-height:1.25;font-family:sans-serif;letter-spacing:0px;word-spacing:0px;fill:#000000;fill-opacity:1;stroke:none" id="flowRoot2217-8" xml:space="preserve"><flowRegion id="flowRegion2219-0"><rect y="2460.971923828125" x="-515.1777954101562" height="17.17259407043457" width="93.94418334960938" id="rect2221-7"/></flowRegion><flowPara id="flowPara2223-5"/></flowRoot>            <flowRoot transform="translate(-0.8264462351799011,-54.54545211791992) translate(2.954637289047241,16.32334327697754) translate(421.44744873046875,-52.50319290161133) translate(-292.8663635253906,-14.46895980834961) translate(-163.6636962890625,14.3630952835083) translate(38.69761276245117,-344.7345275878906) " style="font-style:normal;font-weight:normal;font-size:13.33333302px;line-height:1.25;font-family:sans-serif;letter-spacing:0px;word-spacing:0px;fill:#000000;fill-opacity:1;stroke:none" id="flowRoot2237-8" xml:space="preserve"><flowRegion id="flowRegion2239-8"><rect y="2397.332275390625" x="-137.38075256347656" height="15.152288436889648" width="57.57869338989258" id="rect2241-0"/></flowRegion><flowPara id="flowPara2243-8"/></flowRoot>            <flowRoot transform="translate(-0.8264462351799011,-54.54545211791992) translate(2.954637289047241,16.32334327697754) translate(421.44744873046875,-52.50319290161133) translate(-292.8663635253906,-14.46895980834961) translate(-163.6636962890625,14.3630952835083) translate(4.034152984619141,-562.7117919921875) " style="font-style:normal;font-weight:normal;font-size:13.33333302px;line-height:1.25;font-family:sans-serif;letter-spacing:0px;word-spacing:0px;fill:#000000;fill-opacity:1;stroke:none" id="flowRoot2217-5" xml:space="preserve"><flowRegion id="flowRegion2219-3"><rect y="2460.971923828125" x="-515.1777954101562" height="17.17259407043457" width="93.94418334960938" id="rect2221-4"/></flowRegion><flowPara id="flowPara2223-2"/></flowRoot>            <flowRoot transform="translate(-0.8264462351799011,-54.54545211791992) translate(2.954637289047241,16.32334327697754) translate(421.44744873046875,-52.50319290161133) translate(-292.8663635253906,-14.46895980834961) translate(-163.6636962890625,14.3630952835083) translate(4.034152984619141,-562.7117919921875) " style="font-style:normal;font-weight:normal;font-size:13.33333302px;line-height:1.25;font-family:sans-serif;letter-spacing:0px;word-spacing:0px;fill:#000000;fill-opacity:1;stroke:none" id="flowRoot2237-4" xml:space="preserve"><flowRegion id="flowRegion2239-1"><rect y="2397.332275390625" x="-137.38075256347656" height="15.152288436889648" width="57.57869338989258" id="rect2241-5"/></flowRegion><flowPara id="flowPara2243-7"/></flowRoot>            <rect transform="matrix(0.49968061,-0.86620972,0.4028038,0.91528635,0,0) " y="905.2487678709117" x="1026.624009388503" height="40.260498046875" width="2.246713399887085" id="rect944-7" style="fill:#f9f9f9;fill-opacity:1;stroke:none;stroke-width:0.16986966;stroke-opacity:1"/>
            <flowRoot transform="translate(-0.8264462351799011,-54.54545211791992) translate(2.954637289047241,16.32334327697754) translate(421.44744873046875,-52.50319290161133) translate(-292.8663635253906,-14.46895980834961) translate(-163.6636962890625,14.3630952835083) translate(191.50343322753906,-241.06475830078125) " style="font-style:normal;font-weight:normal;font-size:13.33333302px;line-height:1.25;font-family:sans-serif;letter-spacing:0px;word-spacing:0px;fill:#000000;fill-opacity:1;stroke:none" id="flowRoot2217-81" xml:space="preserve"><flowRegion id="flowRegion2219-05"><rect y="2460.971923828125" x="-515.1777954101562" height="17.17259407043457" width="93.94418334960938" id="rect2221-59"/></flowRegion><flowPara id="flowPara2223-3"/></flowRoot>            <flowRoot transform="translate(-0.8264462351799011,-54.54545211791992) translate(2.954637289047241,16.32334327697754) translate(421.44744873046875,-52.50319290161133) translate(-292.8663635253906,-14.46895980834961) translate(-163.6636962890625,14.3630952835083) translate(191.50343322753906,-241.06475830078125) " style="font-style:normal;font-weight:normal;font-size:13.33333302px;line-height:1.25;font-family:sans-serif;letter-spacing:0px;word-spacing:0px;fill:#000000;fill-opacity:1;stroke:none" id="flowRoot2237-1" xml:space="preserve"><flowRegion id="flowRegion2239-17"><rect y="2397.332275390625" x="-137.38075256347656" height="15.152288436889648" width="57.57869338989258" id="rect2241-80"/></flowRegion><flowPara id="flowPara2243-72"/></flowRoot>            <flowRoot transform="translate(-0.8264462351799011,-54.54545211791992) translate(2.954637289047241,16.32334327697754) translate(421.44744873046875,-52.50319290161133) translate(-292.8663635253906,-14.46895980834961) translate(-163.6636962890625,14.3630952835083) translate(187.2736053466797,-246.52279663085938) " style="font-style:normal;font-weight:normal;font-size:13.33333302px;line-height:1.25;font-family:sans-serif;letter-spacing:0px;word-spacing:0px;fill:#000000;fill-opacity:1;stroke:none" id="flowRoot2217-0-7" xml:space="preserve"><flowRegion id="flowRegion2219-7-8"><rect y="2460.971923828125" x="-515.1777954101562" height="17.17259407043457" width="93.94418334960938" id="rect2221-5-4"/></flowRegion><flowPara id="flowPara2223-1-6"/></flowRoot>            <flowRoot transform="translate(-0.8264462351799011,-54.54545211791992) translate(2.954637289047241,16.32334327697754) translate(421.44744873046875,-52.50319290161133) translate(-292.8663635253906,-14.46895980834961) translate(-163.6636962890625,14.3630952835083) translate(187.2736053466797,-246.52279663085938) " style="font-style:normal;font-weight:normal;font-size:13.33333302px;line-height:1.25;font-family:sans-serif;letter-spacing:0px;word-spacing:0px;fill:#000000;fill-opacity:1;stroke:none" id="flowRoot2237-0-7" xml:space="preserve"><flowRegion id="flowRegion2239-0-3"><rect y="2397.332275390625" x="-137.38075256347656" height="15.152288436889648" width="57.57869338989258" id="rect2241-7-9"/></flowRegion><flowPara id="flowPara2243-3-7"/></flowRoot>            <flowRoot transform="translate(-0.8264462351799011,-54.54545211791992) translate(2.954637289047241,16.32334327697754) translate(421.44744873046875,-52.50319290161133) translate(-292.8663635253906,-14.46895980834961) translate(-163.6636962890625,14.3630952835083) translate(194.01010131835938,-237.2636260986328) " style="font-style:normal;font-weight:normal;font-size:13.33333302px;line-height:1.25;font-family:sans-serif;letter-spacing:0px;word-spacing:0px;fill:#000000;fill-opacity:1;stroke:none" id="flowRoot2217-8-2" xml:space="preserve"><flowRegion id="flowRegion2219-0-9"><rect y="2460.971923828125" x="-515.1777954101562" height="17.17259407043457" width="93.94418334960938" id="rect2221-7-4"/></flowRegion><flowPara id="flowPara2223-5-7"/></flowRoot>            <flowRoot transform="translate(-0.8264462351799011,-54.54545211791992) translate(2.954637289047241,16.32334327697754) translate(421.44744873046875,-52.50319290161133) translate(-292.8663635253906,-14.46895980834961) translate(-163.6636962890625,14.3630952835083) translate(194.01010131835938,-237.2636260986328) " style="font-style:normal;font-weight:normal;font-size:13.33333302px;line-height:1.25;font-family:sans-serif;letter-spacing:0px;word-spacing:0px;fill:#000000;fill-opacity:1;stroke:none" id="flowRoot2237-8-4" xml:space="preserve"><flowRegion id="flowRegion2239-8-7"><rect y="2397.332275390625" x="-137.38075256347656" height="15.152288436889648" width="57.57869338989258" id="rect2241-0-2"/></flowRegion><flowPara id="flowPara2243-8-3"/></flowRoot>            <flowRoot transform="translate(-0.8264462351799011,-54.54545211791992) translate(2.954637289047241,16.32334327697754) translate(421.44744873046875,-52.50319290161133) translate(-292.8663635253906,-14.46895980834961) translate(-163.6636962890625,14.3630952835083) translate(193.92108154296875,-246.86158752441406) " style="font-style:normal;font-weight:normal;font-size:13.33333302px;line-height:1.25;font-family:sans-serif;letter-spacing:0px;word-spacing:0px;fill:#000000;fill-opacity:1;stroke:none" id="flowRoot2217-6" xml:space="preserve"><flowRegion id="flowRegion2219-2"><rect y="2460.971923828125" x="-515.1777954101562" height="17.17259407043457" width="93.94418334960938" id="rect2221-9"/></flowRegion><flowPara id="flowPara2223-0"/></flowRoot>            <flowRoot transform="translate(-0.8264462351799011,-54.54545211791992) translate(2.954637289047241,16.32334327697754) translate(421.44744873046875,-52.50319290161133) translate(-292.8663635253906,-14.46895980834961) translate(-163.6636962890625,14.3630952835083) translate(193.92108154296875,-246.86158752441406) " style="font-style:normal;font-weight:normal;font-size:13.33333302px;line-height:1.25;font-family:sans-serif;letter-spacing:0px;word-spacing:0px;fill:#000000;fill-opacity:1;stroke:none" id="flowRoot2237-7" xml:space="preserve"><flowRegion id="flowRegion2239-9"><rect y="2397.332275390625" x="-137.38075256347656" height="15.152288436889648" width="57.57869338989258" id="rect2241-8"/></flowRegion><flowPara id="flowPara2243-6"/></flowRoot>            <path style="fill:#502d16;fill-opacity:0;stroke:none;stroke-width:0.34742409" d="m-269.41727003011704,143.103763732605 c-16.82187,-1.71535 -30.57345,-6.81296 -43.77543,-16.2272 c-3.84657,-2.74297 -13.60696,-12.08169 -16.95186,-16.21952 c-10.4636,-12.94404 -17.24684,-30.2222 -18.37951,-46.81595 c-0.4994500000000003,-7.31695 0.04180000000000005,-17.16901 1.27492,-23.20888 c6.22735,-30.50061 28.16387,-55.254115 57.54121,-64.930375 c9.55655,-3.14773 17.34172,-4.3507 28.20826,-4.3588000000000005 c14.31694,-0.010600000000000009 29.51124,4.30934 42.59931,12.11171 c11.17911,6.66435 22.84205,18.16897 29.30169,28.903925 c5.49219,9.12719 9.40084,19.25846 11.21427,29.06753 c2.22568,12.03895 1.8429900000000008,25.09913 -1.07674,36.7467 c-2.85032,11.37066 -8.54863,22.86065 -16.13078,32.52589 c-2.91005,3.70955 -9.43182,10.27579 -13.19984,13.28987 c-12.86263,10.28895 -28.97885,17.10821 -43.94915,18.59624 c-4.00067,0.3976500000000003 -14.6237,0.7281900000000006 -16.67635,0.51886 z" id="path834-3" inkscape:connector-curvature="0"/>
            <flowRoot transform="translate(-0.8264462351799011,-54.54545211791992) translate(2.954637289047241,16.32334327697754) translate(421.44744873046875,-52.50319290161133) translate(-292.8663635253906,-14.46895980834961) translate(-163.6636962890625,14.3630952835083) translate(-174.54176330566406,-554.9951782226562) " style="font-style:normal;font-weight:normal;font-size:13.33333302px;line-height:1.25;font-family:sans-serif;letter-spacing:0px;word-spacing:0px;fill:#000000;fill-opacity:1;stroke:none" id="flowRoot2217-85" xml:space="preserve"><flowRegion id="flowRegion2219-5"><rect y="2460.971923828125" x="-515.1777954101562" height="17.17259407043457" width="93.94418334960938" id="rect2221-1"/></flowRegion><flowPara id="flowPara2223-7"/></flowRoot>            <flowRoot transform="translate(-0.8264462351799011,-54.54545211791992) translate(2.954637289047241,16.32334327697754) translate(421.44744873046875,-52.50319290161133) translate(-292.8663635253906,-14.46895980834961) translate(-163.6636962890625,14.3630952835083) translate(-174.54176330566406,-554.9951782226562) " style="font-style:normal;font-weight:normal;font-size:13.33333302px;line-height:1.25;font-family:sans-serif;letter-spacing:0px;word-spacing:0px;fill:#000000;fill-opacity:1;stroke:none" id="flowRoot2237-47" xml:space="preserve"><flowRegion id="flowRegion2239-3"><rect y="2397.332275390625" x="-137.38075256347656" height="15.152288436889648" width="57.57869338989258" id="rect2241-3"/></flowRegion><flowPara id="flowPara2243-1"/></flowRoot>            <flowRoot transform="translate(-0.8264462351799011,-54.54545211791992) translate(2.954637289047241,16.32334327697754) translate(421.44744873046875,-52.50319290161133) translate(-292.8663635253906,-14.46895980834961) translate(-163.6636962890625,14.3630952835083) translate(-178.77159118652344,-560.4531860351562) " style="font-style:normal;font-weight:normal;font-size:13.33333302px;line-height:1.25;font-family:sans-serif;letter-spacing:0px;word-spacing:0px;fill:#000000;fill-opacity:1;stroke:none" id="flowRoot2217-0-71" xml:space="preserve"><flowRegion id="flowRegion2219-7-9"><rect y="2460.971923828125" x="-515.1777954101562" height="17.17259407043457" width="93.94418334960938" id="rect2221-5-3"/></flowRegion><flowPara id="flowPara2223-1-8"/></flowRoot>            <flowRoot transform="translate(-0.8264462351799011,-54.54545211791992) translate(2.954637289047241,16.32334327697754) translate(421.44744873046875,-52.50319290161133) translate(-292.8663635253906,-14.46895980834961) translate(-163.6636962890625,14.3630952835083) translate(-178.77159118652344,-560.4531860351562) " style="font-style:normal;font-weight:normal;font-size:13.33333302px;line-height:1.25;font-family:sans-serif;letter-spacing:0px;word-spacing:0px;fill:#000000;fill-opacity:1;stroke:none" id="flowRoot2237-0-4" xml:space="preserve"><flowRegion id="flowRegion2239-0-7"><rect y="2397.332275390625" x="-137.38075256347656" height="15.152288436889648" width="57.57869338989258" id="rect2241-7-5"/></flowRegion><flowPara id="flowPara2243-3-8"/></flowRoot>            <path style="fill:#502d16;fill-opacity:0;stroke:none;stroke-width:0.34742409" d="m-266.91060003011705,146.904893732605 c-16.82187,-1.71535 -30.57346,-6.81296 -43.77543,-16.2272 c-3.84657,-2.74296 -13.60696,-12.08169 -16.95186,-16.21952 c-10.4636,-12.94404 -17.24684,-30.2222 -18.37951,-46.81595 c-0.4994500000000003,-7.31695 0.04180000000000005,-17.16901 1.27492,-23.20888 c6.22735,-30.50061 28.16387,-55.254115 57.54121,-64.930375 c9.55655,-3.14773 17.34172,-4.3507 28.20826,-4.3588000000000005 c14.31694,-0.010600000000000009 29.51124,4.30934 42.59931,12.11171 c11.17911,6.66435 22.84205,18.16897 29.30169,28.903925 c5.49219,9.12719 9.40084,19.25846 11.21427,29.06753 c2.22568,12.03895 1.8429900000000008,25.09913 -1.07674,36.7467 c-2.85032,11.37066 -8.54863,22.86065 -16.13078,32.52589 c-2.91005,3.70955 -9.43182,10.27579 -13.19984,13.28987 c-12.86263,10.28895 -28.97885,17.10821 -43.94915,18.59624 c-4.00067,0.3976500000000003 -14.6237,0.7281900000000006 -16.67635,0.51886 z" id="path834-6-0" inkscape:connector-curvature="0"/>
            <flowRoot transform="translate(-0.8264462351799011,-54.54545211791992) translate(2.954637289047241,16.32334327697754) translate(421.44744873046875,-52.50319290161133) translate(-292.8663635253906,-14.46895980834961) translate(-163.6636962890625,14.3630952835083) translate(-172.03509521484375,-551.1940307617188) " style="font-style:normal;font-weight:normal;font-size:13.33333302px;line-height:1.25;font-family:sans-serif;letter-spacing:0px;word-spacing:0px;fill:#000000;fill-opacity:1;stroke:none" id="flowRoot2217-8-8" xml:space="preserve"><flowRegion id="flowRegion2219-0-92"><rect y="2460.971923828125" x="-515.1777954101562" height="17.17259407043457" width="93.94418334960938" id="rect2221-7-8"/></flowRegion><flowPara id="flowPara2223-5-74"/></flowRoot>            <flowRoot transform="translate(-0.8264462351799011,-54.54545211791992) translate(2.954637289047241,16.32334327697754) translate(421.44744873046875,-52.50319290161133) translate(-292.8663635253906,-14.46895980834961) translate(-163.6636962890625,14.3630952835083) translate(-172.03509521484375,-551.1940307617188) " style="font-style:normal;font-weight:normal;font-size:13.33333302px;line-height:1.25;font-family:sans-serif;letter-spacing:0px;word-spacing:0px;fill:#000000;fill-opacity:1;stroke:none" id="flowRoot2237-8-6" xml:space="preserve"><flowRegion id="flowRegion2239-8-1"><rect y="2397.332275390625" x="-137.38075256347656" height="15.152288436889648" width="57.57869338989258" id="rect2241-0-9"/></flowRegion><flowPara id="flowPara2243-8-6"/></flowRoot>            <path style="fill:#502d16;fill-opacity:0;stroke:none;stroke-width:0.34742409" d="m-266.99962003011706,137.306933732605 c-16.82187,-1.71535 -30.57345,-6.81296 -43.77543,-16.2272 c-3.84657,-2.74297 -13.60696,-12.08169 -16.95186,-16.21952 c-10.4636,-12.94404 -17.24684,-30.2222 -18.37951,-46.81595 c-0.4994500000000003,-7.31695 0.04180000000000005,-17.16901 1.27492,-23.20888 c6.22735,-30.500615 28.16387,-55.254115 57.54121,-64.930375 c9.55655,-3.14773 17.34172,-4.3507 28.20826,-4.3588000000000005 c14.31694,-0.010600000000000009 29.51124,4.30934 42.59931,12.11171 c11.17911,6.66435 22.84205,18.16897 29.30169,28.90392 c5.49219,9.127195 9.40084,19.258465 11.21427,29.067535 c2.22568,12.03895 1.8429900000000008,25.09913 -1.07674,36.7467 c-2.85032,11.37066 -8.54863,22.86065 -16.13078,32.52589 c-2.91005,3.70955 -9.43182,10.27579 -13.19984,13.28987 c-12.86263,10.28895 -28.97885,17.10821 -43.94915,18.59624 c-4.00067,0.3976500000000003 -14.6237,0.7281900000000006 -16.67635,0.51886 z" id="path834-0-1" inkscape:connector-curvature="0"/>
            <flowRoot transform="translate(-0.8264462351799011,-54.54545211791992) translate(2.954637289047241,16.32334327697754) translate(421.44744873046875,-52.50319290161133) translate(-292.8663635253906,-14.46895980834961) translate(-163.6636962890625,14.3630952835083) translate(-172.12411499023438,-560.7919921875) " style="font-style:normal;font-weight:normal;font-size:13.33333302px;line-height:1.25;font-family:sans-serif;letter-spacing:0px;word-spacing:0px;fill:#000000;fill-opacity:1;stroke:none" id="flowRoot2217-6-1" xml:space="preserve"><flowRegion id="flowRegion2219-2-9"><rect y="2460.971923828125" x="-515.1777954101562" height="17.17259407043457" width="93.94418334960938" id="rect2221-9-7"/></flowRegion><flowPara id="flowPara2223-0-6"/></flowRoot>            <flowRoot transform="translate(-0.8264462351799011,-54.54545211791992) translate(2.954637289047241,16.32334327697754) translate(421.44744873046875,-52.50319290161133) translate(-292.8663635253906,-14.46895980834961) translate(-163.6636962890625,14.3630952835083) translate(-172.12411499023438,-560.7919921875) " style="font-style:normal;font-weight:normal;font-size:13.33333302px;line-height:1.25;font-family:sans-serif;letter-spacing:0px;word-spacing:0px;fill:#000000;fill-opacity:1;stroke:none" id="flowRoot2237-7-2" xml:space="preserve"><flowRegion id="flowRegion2239-9-1"><rect y="2397.332275390625" x="-137.38075256347656" height="15.152288436889648" width="57.57869338989258" id="rect2241-8-4"/></flowRegion><flowPara id="flowPara2243-6-7"/></flowRoot>            <g id="layer1-9">
              <path style="fill:#502d16;fill-opacity:0;stroke:none;stroke-width:0.34742409" d="M-339.4097465828514,-449.79331437286373 C-356.2316125828514,-451.5086643728638 -369.9831965828514,-456.60627437286377 -383.1851785828514,-466.02052437286375 C-387.0317425828514,-468.7634843728638 -396.7921345828514,-478.1022143728637 -400.1370355828514,-482.24003437286376 C-410.6006315828514,-495.18407437286373 -417.38387758285137,-512.4622443728638 -418.5165445828514,-529.0559943728638 c-0.4994470000000003,-7.31695 0.04175000000000005,-17.16901 1.2749190000000001,-23.20888 c6.227348,-30.500606 28.163868,-55.254106 57.541212,-64.930371 c9.556552,-3.147722 17.341717,-4.350699 28.208257,-4.358791 c14.31694,-0.010660000000000006 29.51124,4.309335 42.59931,12.111701 c11.17911,6.664351 22.84205,18.168975 29.30169,28.903924 c5.49219,9.127187 9.40084,19.258457 11.21427,29.067527 c2.22568,12.03895 1.8429900000000008,25.09913 -1.07674,36.7467 c-2.85032,11.37066 -8.54863,22.86065 -16.13078,32.52589 c-2.91005,3.70955 -9.43182,10.27579 -13.19984,13.28987 c-12.86263,10.28895 -28.97885,17.10821 -43.94915,18.59624 c-4.00067,0.39765000000000034 -14.6237,0.7281900000000007 -16.67635,0.51887 z" id="path834-96" inkscape:connector-curvature="0"/>
              <rect transform="matrix(0.87080855,0.49162228,-0.93208188,0.36224765,0,0) " y="-568.8443928826715" x="-795.4118819725996" height="36.85279083251953" width="1.9261730909347534" id="rect909-2" style="fill:#f9f9f9;fill-opacity:1;stroke:none;stroke-width:0.15048224;stroke-opacity:1"/>
              <rect style="fill:#ffffff;fill-opacity:1;stroke:none;stroke-width:0.15348618;stroke-opacity:1" id="rect931-5" width="2.0300238132476807" height="36.377479553222614" x="-729.4989864970045" y="-961.009823392239" transform="matrix(0.90675901,-0.42164926,-0.196439,0.98051605,0,0) "/>
              <rect style="fill:#ffffff;fill-opacity:1;stroke:none;stroke-width:0.13910891;stroke-opacity:1" id="rect935-2" width="1.6742297410964966" height="36.23180007934566" x="522.5255881666176" y="-358.0472415107416" transform="matrix(-0.30460917,-0.95247743,0.97088535,0.23954465,0,0) "/>
            </g>
            <path style="fill:#502d16;fill-opacity:0;stroke:none;stroke-width:0.34742409" d="m112.802859969883,668.333553732605 c-16.82187,-1.71535 -30.57345,-6.81296 -43.77543,-16.22722 c-3.84657,-2.74296 -13.60696,-12.08168 -16.95186,-16.21951 c-10.4636,-12.94403 -17.24684,-30.22221 -18.37951,-46.81596 c-0.4994500000000003,-7.31695 0.04180000000000005,-17.16901 1.27492,-23.20888 c6.22735,-30.50061 28.16387,-55.25411 57.54121,-64.93037 c9.55655,-3.14773 17.34172,-4.3507 28.20826,-4.3588000000000005 c14.31694,-0.010600000000000009 29.51124,4.30934 42.59931,12.11171 c11.17911,6.66435 22.84205,18.16897 29.30169,28.90392 c5.49219,9.12719 9.40084,19.25846 11.21427,29.06753 c2.22568,12.03895 1.8429900000000008,25.09913 -1.07674,36.7467 c-2.85032,11.37067 -8.54863,22.86065 -16.13078,32.52589 c-2.91005,3.7095599999999997 -9.43182,10.2758 -13.19984,13.28987 c-12.86263,10.28895 -28.97885,17.10821 -43.94915,18.59624 c-4.00067,0.3976500000000003 -14.6237,0.7281900000000006 -16.67635,0.51888 z" id="path834-34" inkscape:connector-curvature="0"/>
            <flowRoot transform="translate(-0.8264462351799011,-54.54545211791992) translate(2.954637289047241,16.32334327697754) translate(421.44744873046875,-52.50319290161133) translate(-292.8663635253906,-14.46895980834961) translate(-163.6636962890625,14.3630952835083) translate(207.67835998535156,-29.7653865814209) " style="font-style:normal;font-weight:normal;font-size:13.33333302px;line-height:1.25;font-family:sans-serif;letter-spacing:0px;word-spacing:0px;fill:#000000;fill-opacity:1;stroke:none" id="flowRoot2217-3" xml:space="preserve"><flowRegion id="flowRegion2219-75"><rect y="2460.971923828125" x="-515.1777954101562" height="17.17259407043457" width="93.94418334960938" id="rect2221-6"/></flowRegion><flowPara id="flowPara2223-8"/></flowRoot>            <flowRoot transform="translate(-0.8264462351799011,-54.54545211791992) translate(2.954637289047241,16.32334327697754) translate(421.44744873046875,-52.50319290161133) translate(-292.8663635253906,-14.46895980834961) translate(-163.6636962890625,14.3630952835083) translate(207.67835998535156,-29.7653865814209) " style="font-style:normal;font-weight:normal;font-size:13.33333302px;line-height:1.25;font-family:sans-serif;letter-spacing:0px;word-spacing:0px;fill:#000000;fill-opacity:1;stroke:none" id="flowRoot2237-5" xml:space="preserve"><flowRegion id="flowRegion2239-01"><rect y="2397.332275390625" x="-137.38075256347656" height="15.152288436889648" width="57.57869338989258" id="rect2241-9"/></flowRegion><flowPara id="flowPara2243-14"/></flowRoot>            <path style="fill:#502d16;fill-opacity:0;stroke:none;stroke-width:0.34742409" d="M108.57303996988298,662.875513732605 C91.751169969883,661.160173732605 77.99958996988295,656.062563732605 64.79760996988296,646.648303732605 C60.95103996988297,643.9053437326049 51.190649969883,634.566613732605 47.845749969882945,630.428793732605 C37.38214996988296,617.484753732605 30.598909969882982,600.2065837326049 29.466239969882963,583.6128337326049 c-0.4994500000000003,-7.31695 0.04180000000000005,-17.16901 1.27492,-23.20888 c6.22735,-30.50061 28.16387,-55.25411 57.54121,-64.93037 c9.55655,-3.14773 17.34172,-4.3507 28.20826,-4.3588000000000005 c14.31694,-0.010600000000000009 29.51124,4.30934 42.59931,12.11171 c11.17911,6.66435 22.84205,18.16897 29.30169,28.90392 c5.49219,9.12719 9.40084,19.25846 11.21427,29.06753 c2.22568,12.03895 1.8429900000000008,25.09913 -1.07674,36.7467 c-2.85032,11.37067 -8.54863,22.86065 -16.13078,32.52589 c-2.91005,3.7095599999999997 -9.43182,10.27579 -13.19984,13.28987 c-12.86263,10.28895 -28.97885,17.10821 -43.94915,18.59624 c-4.00067,0.3976500000000003 -14.6237,0.7281900000000006 -16.67635,0.51887 z" id="path834-9-1" inkscape:connector-curvature="0"/>
            <flowRoot transform="translate(-0.8264462351799011,-54.54545211791992) translate(2.954637289047241,16.32334327697754) translate(421.44744873046875,-52.50319290161133) translate(-292.8663635253906,-14.46895980834961) translate(-163.6636962890625,14.3630952835083) translate(203.44854736328125,-35.22341537475586) " style="font-style:normal;font-weight:normal;font-size:13.33333302px;line-height:1.25;font-family:sans-serif;letter-spacing:0px;word-spacing:0px;fill:#000000;fill-opacity:1;stroke:none" id="flowRoot2217-0-3" xml:space="preserve"><flowRegion id="flowRegion2219-7-6"><rect y="2460.971923828125" x="-515.1777954101562" height="17.17259407043457" width="93.94418334960938" id="rect2221-5-2"/></flowRegion><flowPara id="flowPara2223-1-67"/></flowRoot>            <flowRoot transform="translate(-0.8264462351799011,-54.54545211791992) translate(2.954637289047241,16.32334327697754) translate(421.44744873046875,-52.50319290161133) translate(-292.8663635253906,-14.46895980834961) translate(-163.6636962890625,14.3630952835083) translate(203.44854736328125,-35.22341537475586) " style="font-style:normal;font-weight:normal;font-size:13.33333302px;line-height:1.25;font-family:sans-serif;letter-spacing:0px;word-spacing:0px;fill:#000000;fill-opacity:1;stroke:none" id="flowRoot2237-0-3" xml:space="preserve"><flowRegion id="flowRegion2239-0-6"><rect y="2397.332275390625" x="-137.38075256347656" height="15.152288436889648" width="57.57869338989258" id="rect2241-7-3"/></flowRegion><flowPara id="flowPara2243-3-5"/></flowRoot>            <text id="text2064" y="-115.94904826739503" x="-272.50926003011705" style="font-style:normal;font-weight:normal;font-size:3.52777767px;line-height:1.25;font-family:sans-serif;letter-spacing:0px;word-spacing:0px;fill:#000000;fill-opacity:1;stroke:none;stroke-width:0.26458332" xml:space="preserve"><tspan style="stroke-width:0.26458332" y="-115.94904826739503" x="-272.50926003011705" id="tspan2062"> </tspan></text>
            <text id="text2068" y="-115.94904826739503" x="-272.50926003011705" style="font-style:normal;font-weight:normal;font-size:3.52777767px;line-height:1.25;font-family:sans-serif;letter-spacing:0px;word-spacing:0px;fill:#000000;fill-opacity:1;stroke:none;stroke-width:0.26458332" xml:space="preserve"/>
            <text y="31.288293732604984" x="596.487409969883" transform="rotate(58.446083068847656 -32.95442199707032,-90.83116149902344) " id="text2075" style="font-style:normal;font-weight:normal;font-size:9.87777805px;line-height:1.25;font-family:sans-serif;letter-spacing:0px;word-spacing:0px;fill:#f9f9f9;fill-opacity:1;stroke:none;stroke-width:0.26458332" xml:space="preserve"><tspan style="font-size:9.87777805px;fill:#f9f9f9;stroke-width:0.26458332" id="tspan2073" x="-32.954420030117035" y="-90.83116626739502">Next Iteration</tspan></text>
            <flowRoot xml:space="preserve" id="flowRoot1224" style="font-style:normal;font-weight:normal;font-size:13.33333302px;line-height:1.25;font-family:sans-serif;letter-spacing:0px;word-spacing:0px;fill:#000000;fill-opacity:1;stroke:none" transform="translate(-0.8264462351799011,-54.54545211791992) translate(2.954637289047241,16.32334327697754) translate(421.44744873046875,-52.50319290161133) translate(-292.8663635253906,-14.46895980834961) translate(-163.6636962890625,14.3630952835083) matrix(0.26458333,0,0,0.26458333,-4.135167,-16.553399) "><flowRegion id="flowRegion1226"><rect id="rect1228" width="422.2437744140625" height="26.263965606689453" x="-475.7818603515625" y="663.910400390625"/></flowRegion><flowPara id="flowPara1230"/></flowRoot>          </g>
          <path style="fill:#47c8ba;fill-opacity:1;stroke:none;stroke-width:0.34742406;stroke-opacity:1" d="m87.60100268083573,179.73686045562744 c-16.82186,-1.71535 -30.573455,-6.81296 -43.775435,-16.22721 c-3.84657,-2.74296 -13.60696,-12.08169 -16.95187,-16.21952 c-10.46359,-12.94404 -17.24682,-30.2222 -18.37949,-46.81595 c-0.4994500000000002,-7.31696 0.04170000000000003,-17.169 1.27492,-23.20888 c6.22734,-30.50061 28.16386,-55.25411 57.541215,-64.93037 c9.55654,-3.14772 17.34171,-4.3507 28.20824,-4.35879 c14.31694,-0.010700000000000012 29.51124,4.30933 42.59931,12.1117 c11.17911,6.66435 22.84205,18.16897 29.30169,28.90392 c5.49219,9.1272 9.40084,19.25846 11.21427,29.06753 c2.22568,12.03894 1.8429900000000008,25.09913 -1.07674,36.74669 c-2.85032,11.37066 -8.54863,22.86065 -16.13078,32.52589 c-2.91006,3.70955 -9.43182,10.2758 -13.19984,13.28988 c-12.86263,10.28894 -28.97886,17.10821 -43.94915,18.59623 c-4.00067,0.3976500000000002 -14.62369,0.7281900000000004 -16.67634,0.51888 z" id="path836-0-0" inkscape:connector-curvature="0"/>
          <path id="path858-3-6" style="fill:#47c8ba;fill-opacity:1;stroke:none;stroke-width:0.4179281;stroke-opacity:1" d="m180.25574268083574,93.96204045562743 l-32.78373,0.56533 l0.3472900000000002,24.48293 l28.52085,-0.4915400000000002 c0.2963600000000003,-1.06868 0.6454000000000004,-1.85461 0.90719,-2.92363 c0,0 0.19074000000000021,0.05130000000000004 0.1896100000000001,-0.6406500000000007 c0,0 0.2595200000000002,-0.3092600000000002 0.27621,-0.9457400000000006 c0.16689000000000018,-0.5115299999999996 0.2664800000000002,-1.01801 0.4333300000000002,-1.7447400000000006 c0.1755300000000001,-0.9509200000000004 0.04910000000000004,-1.08305 0.3837500000000002,-2.03703 c0.05070000000000003,-0.1445100000000001 -0.12505,-0.008000000000000007 0,0 c0.10751000000000002,0.007000000000000008 0.04600000000000005,-0.5737300000000004 0.04600000000000005,-0.5737300000000004 l0.11276000000000011,-0.3641500000000002 c0.009000000000000011,-0.04170000000000003 0,0 0.07410000000000005,-0.4858900000000002 c0.15227000000000004,-0.15878000000000014 0.10409000000000006,-0.6198400000000007 0.1769000000000001,-0.9721799999999996 c0.11353000000000008,-0.54927 0.1820000000000001,-0.98725 0.20744000000000018,-1.44164 c0.6290400000000007,-4.02516 0.8892700000000004,-8.2808 1.10827,-12.4273 z" inkscape:connector-curvature="0"/>
          <path id="path860-0" style="fill:#c0c0c0;fill-opacity:1;stroke:#ffffff;stroke-width:1;stroke-miterlimit:4;stroke-dasharray:none;stroke-opacity:1" d="m97.56185268083573,88.41400045562744 c-21.4978,0.04700000000000003 -38.152851,11.73172 -52.490309,25.75289 c0.2018,0.25207 -0.1858800000000001,-0.2668200000000002 0,0 c0.60716,0.6569200000000007 -2.67026,-2.31985 -2.21742,-1.691740000000001 c0.1490900000000001,0.2068100000000001 2.21742,1.691740000000001 0.3163900000000002,0.51019 c0.04220000000000003,0.0020000000000000018 1.85905,1.18155 1.90103,1.18155 c1.09112,0.4360700000000003 -0.6549300000000005,-0.92046 0,0 c0.11507000000000008,0.16173000000000018 0.2314300000000001,0.3436500000000003 0.24821000000000018,0.54143 c0.008000000000000007,0.09260000000000011 -0.2699700000000002,-0.25154 -0.21731000000000014,-0.17499000000000015 c0.33472000000000035,0.4866600000000002 0.8827500000000007,0.81086 1.08285,1.40293 c0.4553700000000002,0.9517400000000007 0.8298300000000004,1.63143 1.10636,2.67421 c0.14416,0.5436400000000005 0.51675,1.14112 0.3002700000000002,1.6602100000000002 c-1.18353,2.83792 -1.88585,2.62365 -3.70131,1.72235 c-0.27004,-0.48004 0.18948000000000018,0.30653 -1.0422,-0.80273 c-0.11830000000000006,-0.10653000000000006 -0.3564700000000003,-0.2703600000000002 -0.3671100000000002,-0.3996900000000002 c-0.05050000000000004,-0.027500000000000028 -0.007000000000000008,0.14674000000000015 -0.8595,-0.2139500000000001 c-0.73026,-0.3089600000000003 -0.60901,-0.7356500000000006 -1.51579,-0.8497500000000004 c-0.27406,-0.19371000000000022 -0.5412,-0.3728300000000002 -0.78795,-0.60726 c-0.03130000000000003,-0.029800000000000014 -0.0187,-0.09150000000000011 -0.05240000000000003,-0.11856000000000011 c-0.4182800000000002,-0.3362300000000002 -0.8893900000000005,-0.6045 -1.28404,-0.9723499999999996 c-0.73143,-0.5858800000000004 -1.29953,-1.23665 -1.7559300000000002,-2.0337 c-6.675207,8.05476 -11.195382,17.32044 -13.22594,27.1112 c1.26543,1.8784800000000001 2.5995,3.6931700000000003 4.0019,5.42802 c3.34491,4.13783 13.1052,13.4766 16.95177,16.21956 c13.20198,9.41426 26.953599,14.51195 43.775459,16.22729 c2.05265,0.20932 12.67567,-0.12126000000000008 16.67635,-0.51892 c14.97029,-1.48801 31.08647,-8.30725 43.9491,-18.59619 c3.76803,-3.01408 10.29002,-9.5802 13.20009,-13.28976 c3.1905200000000002,-4.06709 10.58923,-18.34729 13.04078,-22.91574 c-3.9290000000000003,-11.36303 -16.41382,-12.15287 -26.69739,-17.97335 c-15.0281,-8.50589 -30.51492,-19.25691 -50.33596,-19.27315 zm-55.508449,30.42256 c0.006000000000000008,0.030900000000000028 0.010400000000000006,0.062100000000000065 0.0181,0.09270000000000012 c0.020300000000000026,0.07980000000000002 0.6051000000000004,0.54044 -0.0181,-0.09270000000000012 zm3.95589,0.3029500000000002 c-0.012800000000000008,-0.000860000000000001 -0.027000000000000027,0.0010000000000000009 -0.04270000000000003,0.007000000000000008 c-0.013700000000000014,0.005000000000000004 -0.02670000000000002,0.012300000000000007 -0.04030000000000003,0.017800000000000014 c0.06920000000000011,0.06110000000000006 0.13847,0.12205 0.21093000000000015,0.1780100000000001 c-0.013700000000000014,-0.04310000000000005 -0.03810000000000003,-0.19745000000000018 -0.12797,-0.2032000000000001 zm-3.11521,1.84259 c0.030200000000000015,0.03290000000000001 0.06090000000000004,0.06280000000000002 0.09170000000000011,0.08160000000000008 c0.022200000000000015,0.013500000000000014 0.09750000000000011,-0.014500000000000008 0.07360000000000005,-0.024500000000000015 c-0.05390000000000004,-0.022600000000000026 -0.10924000000000007,-0.04040000000000001 -0.16525000000000015,-0.05710000000000004 z" inkscape:connector-curvature="0"/>
          <rect transform="matrix(0.94820601,0.31765603,-0.94826213,0.31748847,0,0) " y="0.11127975448701477" x="182.3031516407711" height="35.90879821777344" width="1.7810076475143433" id="rect909-1" style="fill:#f9f9f9;fill-opacity:1;stroke:none;stroke-width:0.14283536;stroke-opacity:1"/>
          <rect style="fill:#f9f9f9;fill-opacity:1;stroke:none;stroke-width:0.13715212;stroke-opacity:1" id="rect911-1" width="1.5440593957901" height="38.1888313293457" x="124.38221303400708" y="-85.31569429436198" transform="matrix(0.76584712,0.6430227,-0.99930266,0.03733898,0,0) "/>
          <rect transform="matrix(0.68102149,0.73226343,-0.99991363,0.01314291,0,0) " y="-95.74316605586276" x="127.68469631437117" height="36.65655899047849" width="1.6014724969863883" id="rect913-1-7" style="fill:#f9f9f9;fill-opacity:1;stroke:none;stroke-width:0.13684784;stroke-opacity:1"/>
          <ellipse style="fill:#f9f9f9;fill-opacity:1;stroke:none;stroke-width:0.16055916;stroke-opacity:1" id="path885-4-7" cx="93.93765288591385" cy="96.84372043609619" rx="53.79197692871094" ry="55.2274284362793"/>
          <rect transform="matrix(0.78492847,0.6195864,-0.60926188,0.79296908,0,0) " y="-69.78895226659549" x="121.99076968401504" height="34.767677307128906" width="0.896460771560669" id="rect905-5-6" style="fill:#ffffff;fill-opacity:1;stroke:none;stroke-width:0.09971394;stroke-opacity:1"/>
          <rect style="fill:#f9f9f9;fill-opacity:1;stroke:none;stroke-width:0.15216574;stroke-opacity:1" id="rect907-4" width="1.9434231519699088" height="37.34751892089844" x="256.2158757181527" y="110.6464124075896" transform="matrix(0.99728765,-0.07360255,-0.85666177,0.51587849,0,0) "/>
          <rect style="fill:#f9f9f9;fill-opacity:1;stroke:none;stroke-width:0.16033347;stroke-opacity:1" id="rect931-9" width="2.3098032474517822" height="34.88740539550781" x="173.86007985605872" y="191.37818576899406" transform="matrix(0.12090603,-0.99266396,0.29149735,0.95657164,0,0) "/>
          <rect transform="matrix(0.56283186,-0.82657141,0.6565084,0.75431871,0,0) " y="51.587682738086656" x="23.832700419300338" height="41.519439697265625" width="1.0470978021621704" id="rect933-2" style="fill:#f9f9f9;fill-opacity:1;stroke:none;stroke-width:0.11776648;stroke-opacity:1"/>
          <rect style="fill:#ffffff;fill-opacity:1;stroke:none;stroke-width:0.11692595;stroke-opacity:1" id="rect935-7" width="1.0603309869766235" height="40.41806411743164" x="-16.3852276627045" y="32.85806672784248" transform="matrix(0.19435524,-0.98093121,0.79816163,0.60244337,0,0) "/>
          <rect transform="matrix(0.8209095,-0.57105831,-0.21342655,0.97695911,0,0) " y="103.78430972844426" x="161.97929552023547" height="36.47343063354489" width="1.3660024404525748" id="rect944-3-6" style="fill:#f9f9f9;fill-opacity:1;stroke:none;stroke-width:0.12607138;stroke-opacity:1"/>
          <text xml:space="preserve" style="font-style:normal;font-variant:normal;font-weight:bold;font-stretch:normal;font-size:11.00583267px;line-height:1.25;font-family:sans-serif;-inkscape-font-specification:'sans-serif Bold';letter-spacing:0px;word-spacing:0px;fill:#1a1a1a;fill-opacity:1;stroke:none;stroke-width:0.17196614" x="53.48455868083573" y="88.60881045562743" id="text1019"><tspan id="tspan1017" x="53.48455868083573" y="88.60881045562743" style="font-style:normal;font-variant:normal;font-weight:bold;font-stretch:normal;font-size:11.00583267px;font-family:sans-serif;-inkscape-font-specification:'sans-serif Bold';fill:#1a1a1a;stroke-width:0.17196614">      Agile </tspan><tspan x="53.48455868083573" y="102.36591045562744" style="font-style:normal;font-variant:normal;font-weight:bold;font-stretch:normal;font-size:11.00583267px;font-family:sans-serif;-inkscape-font-specification:'sans-serif Bold';fill:#1a1a1a;stroke-width:0.17196614" id="tspan1021">Development</tspan></text>
          <path transform="rotate(6.063075542449951 -431.87252807617153,368.14859008789074) " id="path2173-0" d="m107.47316268083569,39.96618045562744 l12.47498,44.91817 l41.27112,-23.71029 z" style="opacity:0.172;fill:#010404;fill-opacity:1;stroke:none;stroke-width:0.17196614px;stroke-linecap:butt;stroke-linejoin:miter;stroke-opacity:1;filter:url(#filter2187-5)" inkscape:connector-curvature="0"/>
          <text id="text1839" y="85.95911045562744" x="149.5082826808357" style="font-style:normal;font-weight:normal;font-size:3.52777767px;line-height:1.25;font-family:sans-serif;letter-spacing:0px;word-spacing:0px;fill:#ffffff;fill-opacity:1;stroke:none;stroke-width:0.26458332" xml:space="preserve"><tspan style="font-size:3.52777767px;fill:#ffffff;stroke-width:0.26458332" y="85.95911045562744" x="149.5082826808357" id="tspan1837">System Testing</tspan></text>
          <text id="text1843" y="73.07011045562743" x="147.99637268083575" style="font-style:normal;font-weight:normal;font-size:3.52777767px;line-height:1.25;font-family:sans-serif;letter-spacing:0px;word-spacing:0px;fill:#ffffff;fill-opacity:1;stroke:none;stroke-width:0.26458332" xml:space="preserve"><tspan style="fill:#ffffff;stroke-width:0.26458332" y="73.07011045562743" x="147.99637268083575" id="tspan1841">Make Change</tspan></text>
          <text id="text1847" y="54.889470455627446" x="143.08268268083572" style="font-style:normal;font-weight:normal;font-size:3.52777767px;line-height:1.25;font-family:sans-serif;letter-spacing:0px;word-spacing:0px;fill:#ffffff;fill-opacity:1;stroke:none;stroke-width:0.26458332" xml:space="preserve"><tspan style="fill:#ffffff;stroke-width:0.26458332" y="54.889470455627446" x="143.08268268083572" id="tspan1845">Client's</tspan><tspan id="tspan1849" style="fill:#ffffff;stroke-width:0.26458332" y="59.29919045562744" x="143.08268268083572">Feedback</tspan></text>
          <text id="text1853" y="38.82547045562745" x="127.73688268083572" style="font-style:normal;font-variant:normal;font-weight:bold;font-stretch:normal;font-size:4.58611107px;line-height:1.25;font-family:sans-serif;-inkscape-font-specification:'sans-serif Bold';letter-spacing:0px;word-spacing:0px;fill:#ffffff;fill-opacity:1;stroke:none;stroke-width:0.26458332" xml:space="preserve"><tspan id="tspan1857" style="font-style:normal;font-variant:normal;font-weight:bold;font-stretch:normal;font-size:4.58611107px;font-family:sans-serif;-inkscape-font-specification:'sans-serif Bold';fill:#ffffff;stroke-width:0.26458332" y="38.82547045562745" x="127.73688268083572"> Demo </tspan><tspan id="tspan1855" style="font-style:normal;font-variant:normal;font-weight:bold;font-stretch:normal;font-size:4.58611107px;font-family:sans-serif;-inkscape-font-specification:'sans-serif Bold';fill:#ffffff;stroke-width:0.26458332" y="44.55811045562743" x="127.73688268083572">Release</tspan></text>
          <text transform="rotate(1.6147171258926392 -35.909057617186846,-107.15451049804688) " id="text1863" y="23.205510455627433" x="113.69693268083574" style="font-style:normal;font-weight:normal;font-size:3.52777767px;line-height:1.25;font-family:sans-serif;letter-spacing:0px;word-spacing:0px;fill:#ffffff;fill-opacity:1;stroke:none;stroke-width:0.26458332" xml:space="preserve"><tspan style="fill:#ffffff;stroke-width:0.26458332" y="23.205510455627433" x="113.69693268083574" id="tspan1861">Integrate</tspan><tspan id="tspan1865" style="fill:#ffffff;stroke-width:0.26458332" y="27.615230455627454" x="113.69693268083574"> and Test</tspan></text>
          <text id="text1869" y="20.796010455627425" x="84.49637268083575" style="font-style:normal;font-weight:normal;font-size:3.52777767px;line-height:1.25;font-family:sans-serif;letter-spacing:0px;word-spacing:0px;fill:#ffffff;fill-opacity:1;stroke:none;stroke-width:0.26458332" xml:space="preserve"><tspan id="tspan1871" style="fill:#ffffff;stroke-width:0.26458332" y="20.796010455627425" x="84.49637268083575">  Develop</tspan><tspan id="tspan1875" style="fill:#ffffff;stroke-width:0.26458332" y="25.205730455627446" x="84.49637268083575">Funtionality</tspan><tspan id="tspan1877" style="fill:#ffffff;stroke-width:0.26458332" y="29.615460455627442" x="84.49637268083575">      N </tspan></text>
          <text id="text1881" y="28.846910455627437" x="62.49816168083572" style="font-style:normal;font-weight:normal;font-size:3.52777767px;line-height:1.25;font-family:sans-serif;letter-spacing:0px;word-spacing:0px;fill:#ffffff;fill-opacity:1;stroke:none;stroke-width:0.26458332" xml:space="preserve"><tspan style="fill:#ffffff;stroke-width:0.26458332" y="28.846910455627437" x="62.49816168083572" id="tspan1879">Integrate</tspan><tspan id="tspan1883" style="fill:#ffffff;stroke-width:0.26458332" y="33.25664045562743" x="62.49816168083572"> and Test</tspan></text>
          <text id="text1887" y="39.12787045562743" x="39.4416126808357" style="font-style:normal;font-weight:normal;font-size:3.52777767px;line-height:1.25;font-family:sans-serif;letter-spacing:0px;word-spacing:0px;fill:#ffffff;fill-opacity:1;stroke:none;stroke-width:0.26458332" xml:space="preserve"><tspan style="fill:#ffffff;stroke-width:0.26458332" y="39.12787045562743" x="39.4416126808357" id="tspan1885">   Develop </tspan><tspan id="tspan1889" style="fill:#ffffff;stroke-width:0.26458332" y="43.537600455627455" x="39.4416126808357">Funtionality 2</tspan></text>
          <rect transform="matrix(-0.10106952,-0.99487937,0.90176235,0.43223219,0,0) " y="4.065894549093127" x="-57.613950329496724" height="40.69029235839841" width="1.1321585178375235" id="rect1891" style="fill:#ffffff;fill-opacity:1;stroke:none;stroke-width:0.12122758;stroke-opacity:1"/>
          <text xml:space="preserve" style="font-style:normal;font-weight:normal;font-size:3.52777767px;line-height:1.25;font-family:sans-serif;letter-spacing:0px;word-spacing:0px;fill:#ffffff;fill-opacity:1;stroke:none;stroke-width:0.26458332" x="26.17464868083573" y="57.837680455627435" id="text1897"><tspan id="tspan1893" x="26.17464868083573" y="57.837680455627435" style="fill:#ffffff;stroke-width:0.26458332">Integrate</tspan><tspan x="26.17464868083573" y="62.24741045562743" style="fill:#ffffff;stroke-width:0.26458332" id="tspan1895"> and Test</tspan></text>
          <text id="text1901" y="78.51299045562743" x="13.247863680835735" style="font-style:normal;font-weight:normal;font-size:3.52777767px;line-height:1.25;font-family:sans-serif;letter-spacing:0px;word-spacing:0px;fill:#ffffff;fill-opacity:1;stroke:none;stroke-width:0.26458332" xml:space="preserve"><tspan style="fill:#ffffff;stroke-width:0.26458332" y="78.51299045562743" x="13.247863680835735" id="tspan1899">   Develop</tspan><tspan id="tspan1903" style="fill:#ffffff;stroke-width:0.26458332" y="82.92271045562745" x="13.247863680835735">Functionality 1</tspan></text>
          <path id="path1909" d="m9.842019680835733,147.66446045562748 l15.33502,-44.63923 l44.023563,22.56637 z" style="fill:#fefefe;fill-opacity:1;stroke:none;stroke-width:1;stroke-linecap:butt;stroke-linejoin:miter;stroke-miterlimit:4;stroke-dasharray:none;stroke-opacity:1" inkscape:connector-curvature="0"/>
          <path style="fill:#c0c0c0;fill-opacity:1;stroke:none;stroke-width:1;stroke-linecap:butt;stroke-linejoin:miter;stroke-miterlimit:4;stroke-dasharray:none;stroke-opacity:1" d="m10.900353680835735,150.31031045562742 l15.33502,-44.63923 l44.023559,22.56637 z" id="path891-1-6" inkscape:connector-curvature="0"/>
          <text id="text1933" y="150.99554045562746" x="139.5335826808357" style="font-style:normal;font-variant:normal;font-weight:bold;font-stretch:normal;font-size:7.05555534px;line-height:1.25;font-family:sans-serif;-inkscape-font-specification:'sans-serif Bold';letter-spacing:0px;word-spacing:0px;fill:#ffffff;fill-opacity:1;stroke:none;stroke-width:0.26458332" xml:space="preserve"><tspan style="font-style:normal;font-variant:normal;font-weight:bold;font-stretch:normal;font-size:7.05555534px;font-family:sans-serif;-inkscape-font-specification:'sans-serif Bold';fill:#ffffff;stroke-width:0.26458332" y="150.99554045562746" x="139.5335826808357" id="tspan1931">No</tspan></text>
          <path style="fill:#ffffff;fill-opacity:1;stroke:none;stroke-width:1.16990077;stroke-linecap:butt;stroke-linejoin:miter;stroke-miterlimit:4;stroke-dasharray:none;stroke-opacity:1" d="m138.58848268083568,97.70559045562743 l8.19218,47.04836 l46.0275,-19.68436 z" id="path1252" inkscape:connector-curvature="0"/>
          <path id="path893-2" d="m140.5167426808357,97.09189045562744 l7.13545,46.069 l43.76113,-18.72022 z" style="fill:#47c8ba;fill-opacity:1;stroke:none;stroke-width:1.12447917;stroke-linecap:butt;stroke-linejoin:miter;stroke-miterlimit:4;stroke-dasharray:none;stroke-opacity:1" inkscape:connector-curvature="0"/>
          <ellipse style="opacity:1;fill:#ffffff;fill-opacity:1;stroke:#71c1ed;stroke-width:0.62935036;stroke-miterlimit:4;stroke-dasharray:none;stroke-opacity:1" id="path1806" cx="154.0735781788826" cy="131.1620798110962" rx="7.0958685874938965" ry="6.982034206390381"/>
          <text xml:space="preserve" style="font-style:normal;font-weight:normal;font-size:3.52777767px;line-height:1.25;font-family:sans-serif;letter-spacing:0px;word-spacing:0px;fill:#f9f9f9;fill-opacity:1;stroke:none;stroke-width:0.26458332" x="151.86925268083576" y="112.60757045562744" id="text1821" transform="rotate(1.64736008644104 -35.909057617187365,-107.15451049804697) "><tspan id="tspan1819" x="151.86925268083576" y="112.60757045562744" style="font-size:3.52777767px;fill:#f9f9f9;stroke-width:0.26458332">All functionalities</tspan><tspan x="151.86925268083576" y="117.01730045562743" style="font-size:3.52777767px;fill:#f9f9f9;stroke-width:0.26458332" id="tspan1823">    Complete?</tspan></text>
          <text xml:space="preserve" style="font-style:normal;font-weight:normal;font-size:4.93888903px;line-height:1.25;font-family:sans-serif;letter-spacing:0px;word-spacing:0px;fill:#4ec6de;fill-opacity:1;stroke:#3cc5a8;stroke-width:0.1;stroke-miterlimit:4;stroke-dasharray:none;stroke-opacity:1" x="149.81946268083573" y="132.64244045562745" id="text1827"><tspan id="tspan1825" x="149.81946268083573" y="132.64244045562745" style="font-size:4.93888903px;fill:#4ec6de;fill-opacity:1;stroke:#3cc5a8;stroke-width:0.1;stroke-miterlimit:4;stroke-dasharray:none;stroke-opacity:1">Yes</tspan></text>
          <g aria-label="Next Iteration " transform="rotate(59.13233947753906 -77.09429931640625,90.54023742675781) " style="font-style:normal;font-variant:normal;font-weight:bold;font-stretch:normal;font-size:7.05555344px;line-height:1.25;font-family:sans-serif;-inkscape-font-specification:'sans-serif Bold';letter-spacing:0px;word-spacing:0px;fill:#ffffff;fill-opacity:1;stroke:none;stroke-width:0.26458326" id="text1537">
            <path d="m67.79791268083574,-2.5330495443725596 l-1.03664,0.7417500000000006 l-3.819543,-1.59637 l2.048843,2.86337 l-0.9862059999999996,0.7056700000000006 l-2.98506,-4.17177 l1.285994,-0.92018 l3.231382,1.3013000000000001 l-1.7100430000000002,-2.3898800000000002 l0.9862129999999993,-0.7056600000000004 z" style="font-style:normal;font-variant:normal;font-weight:bold;font-stretch:normal;font-size:7.05555344px;font-family:sans-serif;-inkscape-font-specification:'sans-serif Bold';fill:#ffffff;stroke-width:0.26458326" id="path3571" inkscape:connector-curvature="0"/>
            <path d="m70.53239268083576,-7.107359544372557 l-2.14799,1.8559800000000002 q0.3181700000000003,0.32608000000000037 0.7156600000000004,0.3013300000000002 q0.4001,-0.027000000000000027 0.86933,-0.4324300000000002 q0.2971700000000002,-0.25677 0.48375,-0.6046600000000004 q0.18657,-0.34789000000000037 0.2423300000000001,-0.6100500000000004 l0.10427000000000006,-0.09010000000000011 l0.6509500000000007,0.75336 q-0.20766,0.40253 -0.4396400000000002,0.7031400000000004 q-0.2319800000000001,0.3006100000000002 -0.57347,0.5956700000000007 q-0.8810900000000007,0.76131 -1.6926800000000006,0.77052 q-0.81159,0.009000000000000011 -1.44452,-0.72331 q-0.62616,-0.7246900000000007 -0.5479,-1.5299 q0.07860000000000006,-0.81006 0.8528300000000004,-1.4790290000000001 q0.71426,-0.6171590000000005 1.38708,-0.5656480000000007 q0.6705700000000004,0.04890000000000001 1.2562,0.7266700000000007 zm-1.40849,0.25633 q-0.26234,-0.2878100000000003 -0.52888,-0.31702200000000036 q-0.26655,-0.029210000000000014 -0.55851,0.22306200000000018 q-0.27111,0.23425 -0.3241300000000002,0.52593 q-0.05300000000000004,0.2916700000000002 0.1941600000000001,0.6199000000000005 z" style="font-style:normal;font-variant:normal;font-weight:bold;font-stretch:normal;font-size:7.05555344px;font-family:sans-serif;-inkscape-font-specification:'sans-serif Bold';fill:#ffffff;stroke-width:0.26458326" id="path3573" inkscape:connector-curvature="0"/>
            <path d="m75.11391268083571,-9.310037544372562 l-1.01403,1.032175 l-1.40518,-0.22140800000000022 l0.23181000000000004,1.415781 l-0.99471,1.01251 l-0.30914,-2.443144 l-2.4338,-0.2853690000000002 l1.01403,-1.032175 l1.3807800000000001,0.2167520000000001 l-0.2388,-1.379177 l0.99713,-1.014971 l0.3039600000000003,2.409088 z" style="font-style:normal;font-variant:normal;font-weight:bold;font-stretch:normal;font-size:7.05555344px;font-family:sans-serif;-inkscape-font-specification:'sans-serif Bold';fill:#ffffff;stroke-width:0.26458326" id="path3575" inkscape:connector-curvature="0"/>
            <path d="m77.12482268083573,-11.745455544372561 q-0.0905000000000001,0.18546700000000022 -0.2151,0.373597 q-0.12193000000000002,0.19036800000000015 -0.33234000000000036,0.436535 q-0.4700700000000002,0.5499490000000006 -0.92322,0.6294190000000004 q-0.4509200000000002,0.07685 -0.9904,-0.3842640000000002 l-1.37487,-1.175173 l-0.33128000000000035,0.3875830000000003 l-0.6389900000000007,-0.546176 l0.3312900000000002,-0.3875830000000003 l-0.8406400000000007,-0.718534 l0.80583,-0.9427690000000004 l0.8406400000000007,0.718534 l0.7543500000000004,-0.882536 l0.6389900000000007,0.5461750000000004 l-0.7543500000000004,0.882537 l1.04228,0.8908930000000007 q0.15451000000000015,0.1320670000000001 0.2719800000000002,0.22793900000000025 q0.11746000000000008,0.0958700000000001 0.2427000000000001,0.1349350000000001 q0.12299000000000006,0.04168000000000003 0.25633,-0.003000000000000004 q0.1329600000000001,-0.04951000000000004 0.2851700000000002,-0.22758700000000018 q0.06270000000000008,-0.07333 0.13198000000000001,-0.21803300000000014 q0.07150000000000002,-0.147326 0.08570000000000011,-0.21684900000000018 l0.06710000000000008,-0.07856000000000007 z" style="font-style:normal;font-variant:normal;font-weight:bold;font-stretch:normal;font-size:7.05555344px;font-family:sans-serif;-inkscape-font-specification:'sans-serif Bold';fill:#ffffff;stroke-width:0.26458326" id="path3577" inkscape:connector-curvature="0"/>
            <path d="m80.67767268083571,-16.565287544372552 l-1.7036700000000002,2.474315 l-0.74911,-0.515792 l0.4767200000000002,-0.6923540000000006 l-2.72685,-1.877561 l-0.4767200000000002,0.6923540000000006 l-0.74911,-0.515792 l1.70368,-2.474315 l0.74911,0.515792 l-0.4767200000000002,0.6923540000000006 l2.72685,1.877561 l0.4767200000000002,-0.6923540000000006 z" style="font-style:normal;font-variant:normal;font-weight:bold;font-stretch:normal;font-size:7.05555344px;font-family:sans-serif;-inkscape-font-specification:'sans-serif Bold';fill:#ffffff;stroke-width:0.26458326" id="path3579" inkscape:connector-curvature="0"/>
            <path d="m82.4596926808357,-19.56664054437256 q-0.05860000000000005,0.19790100000000022 -0.1502500000000001,0.404059 q-0.08870000000000011,0.20793200000000014 -0.25546,0.485547 q-0.3725000000000002,0.6202030000000004 -0.8062400000000004,0.7736240000000004 q-0.4319600000000003,0.1504670000000002 -1.04035,-0.2149380000000002 l-1.55051,-0.931252 l-0.2625200000000002,0.4370960000000002 l-0.7206200000000007,-0.4328110000000002 l0.2625200000000002,-0.437095 l-0.9480200000000004,-0.5693940000000004 l0.6385700000000004,-1.063205 l0.94803,0.5693940000000004 l0.5977700000000006,-0.995279 l0.7206200000000007,0.4328110000000002 l-0.5977800000000004,0.995278 l1.17544,0.7059770000000004 q0.17424000000000014,0.10465500000000005 0.3059600000000003,0.1797500000000001 q0.13173,0.07509000000000007 0.2617,0.09288000000000007 q0.1282,0.02074 0.2523,-0.04538000000000004 q0.12293000000000005,-0.07085 0.24355000000000004,-0.271672 q0.04970000000000003,-0.08269000000000011 0.09400000000000011,-0.23688 q0.046100000000000065,-0.1571400000000001 0.04860000000000004,-0.2280390000000002 l0.05320000000000004,-0.08860000000000011 z" style="font-style:normal;font-variant:normal;font-weight:bold;font-stretch:normal;font-size:7.05555344px;font-family:sans-serif;-inkscape-font-specification:'sans-serif Bold';fill:#ffffff;stroke-width:0.26458326" id="path3581" inkscape:connector-curvature="0"/>
            <path d="m83.06729268083575,-24.358783544372557 l-1.28904,2.529214 q0.4176800000000002,0.1819410000000002 0.77647,0.009100000000000007 q0.3603400000000002,-0.1759520000000001 0.6419300000000004,-0.72845 q0.1783400000000001,-0.34991500000000036 0.2198800000000001,-0.742484 q0.04150000000000003,-0.39256800000000036 -0.006000000000000008,-0.6563990000000007 l0.06260000000000006,-0.12277700000000005 l0.8870700000000006,0.452103 q-0.04040000000000001,0.451125 -0.14188,0.8170400000000004 q-0.10142000000000002,0.3659150000000002 -0.3063500000000003,0.7680110000000004 q-0.52876,1.037468 -1.2769,1.352182 q-0.7481400000000006,0.3147140000000002 -1.6106500000000001,-0.12487300000000005 q-0.85331,-0.4348950000000002 -1.08461,-1.210127 q-0.23281000000000004,-0.779865 0.23181000000000004,-1.691487 q0.42863,-0.8410250000000006 1.07117,-1.047159 q0.63946,-0.2076990000000001 1.43751,0.1990370000000002 zm-1.20769,0.7687760000000005 q-0.35154,-0.16756600000000021 -0.60941,-0.09406000000000012 q-0.2578700000000002,0.07351 -0.43308000000000035,0.4172880000000002 q-0.1626900000000001,0.3192210000000002 -0.10176000000000006,0.6093490000000007 q0.06090000000000004,0.2901280000000002 0.41369,0.500843 z" style="font-style:normal;font-variant:normal;font-weight:bold;font-stretch:normal;font-size:7.05555344px;font-family:sans-serif;-inkscape-font-specification:'sans-serif Bold';fill:#ffffff;stroke-width:0.26458326" id="path3583" inkscape:connector-curvature="0"/>
            <path d="m83.54060268083572,-28.020414544372557 l-0.04280000000000004,0.10158400000000002 q-0.05620000000000003,0.06230000000000006 -0.13714,0.2188510000000001 q-0.08100000000000006,0.1565450000000002 -0.12646000000000004,0.264477 q-0.10306000000000005,0.24443500000000018 -0.1502800000000001,0.4451140000000003 q-0.04720000000000001,0.200679 -0.06200000000000005,0.4486650000000002 l2.38721,1.00648 l-0.4818300000000002,1.142814 l-3.56494,-1.503027 l0.48182000000000036,-1.142814 l0.5237900000000004,0.22083600000000014 q-0.16453000000000018,-0.514281 -0.1515000000000001,-0.8378030000000004 q0.010000000000000007,-0.32486000000000037 0.10889000000000006,-0.559772 q0.025400000000000027,-0.060310000000000065 0.06070000000000004,-0.135164 q0.03530000000000001,-0.07485 0.06570000000000008,-0.129313 z" style="font-style:normal;font-variant:normal;font-weight:bold;font-stretch:normal;font-size:7.05555344px;font-family:sans-serif;-inkscape-font-specification:'sans-serif Bold';fill:#ffffff;stroke-width:0.26458326" id="path3585" inkscape:connector-curvature="0"/>
            <path d="m86.06813268083573,-30.182018544372553 l-0.7636500000000007,-0.258299 q-0.06100000000000004,0.2448560000000001 -0.11892000000000011,0.534393 q-0.06120000000000004,0.288433 -0.06410000000000007,0.4474790000000003 q-0.0040000000000000036,0.19499300000000025 0.07160000000000002,0.3260600000000003 q0.07350000000000002,0.1267 0.24648000000000014,0.18520300000000015 q0.11423000000000011,0.03863000000000004 0.19265000000000004,0.04334000000000004 q0.07840000000000005,0.004700000000000004 0.17018,-0.05154000000000003 q0.09060000000000011,-0.05298000000000001 0.1586100000000001,-0.146375 q0.06470000000000008,-0.09450000000000011 0.1397600000000001,-0.31641200000000036 q0.059600000000000056,-0.1762280000000001 0.04850000000000003,-0.3800030000000002 q-0.010000000000000007,-0.2070380000000001 -0.08110000000000007,-0.3838420000000003 zm0.5678500000000004,0.19206800000000018 q0.03980000000000003,0.11892500000000011 0.09350000000000011,0.2934730000000002 q0.05370000000000004,0.17454800000000015 0.07050000000000002,0.31842900000000035 q0.0198,0.19945600000000022 -0.007000000000000008,0.39761600000000036 q-0.023800000000000023,0.19926400000000022 -0.09880000000000011,0.421179 q-0.17661000000000004,0.522155 -0.6189100000000004,0.7653290000000007 q-0.44230000000000036,0.243174 -0.9448700000000004,0.07318000000000002 q-0.4014100000000002,-0.135772 -0.5952500000000004,-0.4013620000000002 q-0.19384000000000018,-0.265591 -0.22920000000000018,-0.6448740000000007 q-0.03650000000000001,-0.3760190000000002 0.06490000000000005,-0.8799850000000006 q0.10136,-0.5039659999999996 0.2475000000000001,-1.032792 l-0.019600000000000013,-0.006600000000000006 q-0.3035000000000002,-0.102657 -0.5016200000000004,0.10673200000000008 q-0.20137,0.2082850000000001 -0.36474,0.6912780000000007 q-0.09820000000000015,0.2904480000000002 -0.1053,0.6553810000000004 q-0.010300000000000007,0.3638300000000002 -0.003000000000000004,0.526187 l-0.0364,0.10769500000000011 l-0.8844000000000004,-0.299141 q0.014000000000000007,-0.202575 0.0900000000000001,-0.6423760000000004 q0.07390000000000002,-0.4441680000000003 0.21626000000000015,-0.8651550000000005 q0.3388800000000005,-1.001884 0.79903,-1.34085 q0.45799,-0.34333400000000036 1.11721,-0.12035799999999994 l2.49329,0.8433350000000004 l-0.39407000000000036,1.165057 z" style="font-style:normal;font-variant:normal;font-weight:bold;font-stretch:normal;font-size:7.05555344px;font-family:sans-serif;-inkscape-font-specification:'sans-serif Bold';fill:#ffffff;stroke-width:0.26458326" id="path3587" inkscape:connector-curvature="0"/>
            <path d="m88.31191268083569,-34.52667154437256 q-0.0005400000000000004,0.20638900000000004 -0.030500000000000027,0.4300090000000002 q-0.026600000000000026,0.22449200000000022 -0.10856000000000007,0.5378000000000004 q-0.18299000000000018,0.699944000000001 -0.55606,0.96918 q-0.37219,0.265902 -1.0588,0.08639000000000008 l-1.74986,-0.457491 l-0.12897,0.493294 l-0.81327,-0.212625 l0.12897,-0.493293 l-1.06991,-0.279723 l0.3137000000000002,-1.199903 l1.06992,0.279723 l0.2936600000000002,-1.123243 l0.81327,0.212624 l-0.2936600000000002,1.123243 l1.3265500000000001,0.3468210000000004 q0.1966600000000001,0.05141000000000004 0.3441800000000004,0.0864200000000001 q0.1475300000000001,0.03501000000000001 0.27726,0.015510000000000012 q0.12885,-0.016160000000000015 0.2293500000000001,-0.11452100000000011 q0.09800000000000011,-0.10256200000000006 0.15729000000000018,-0.3292110000000002 q0.02440000000000002,-0.0933300000000001 0.023600000000000027,-0.25377 q0.00009000000000000009,-0.16377800000000015 -0.017600000000000015,-0.2324870000000001 l0.026200000000000015,-0.09999000000000015 z" style="font-style:normal;font-variant:normal;font-weight:bold;font-stretch:normal;font-size:7.05555344px;font-family:sans-serif;-inkscape-font-specification:'sans-serif Bold';fill:#ffffff;stroke-width:0.26458326" id="path3589" inkscape:connector-curvature="0"/>
            <path d="m88.74661268083571,-36.454937544372555 l-0.25308,1.214138 l-3.78744,-0.7894659999999996 l0.25308,-1.214138 zm-4.32002,-0.9356720000000004 l-0.26714,1.28159 l-0.9207200000000004,-0.19191800000000026 l0.26714,-1.28159 z" style="font-style:normal;font-variant:normal;font-weight:bold;font-stretch:normal;font-size:7.05555344px;font-family:sans-serif;-inkscape-font-specification:'sans-serif Bold';fill:#ffffff;stroke-width:0.26458326" id="path3591" inkscape:connector-curvature="0"/>
            <path d="m87.62676268083572,-41.78892854437255 q0.9449200000000004,0.1334020000000001 1.4127,0.763082 q0.4648600000000002,0.6257880000000005 0.32423,1.6218780000000006 q-0.14062,0.99609 -0.7610300000000004,1.472141 q-0.6233400000000004,0.472159 -1.56826,0.3387570000000002 q-0.9517500000000004,-0.134365 -1.41612,-0.763563 q-0.46389,-0.6326100000000004 -0.32423,-1.6218780000000006 q0.1415900000000001,-1.002912 0.7644500000000004,-1.47166 q0.6233400000000004,-0.472159 1.56826,-0.3387570000000002 zm0.7179300000000004,1.642667 q-0.12983,-0.140103 -0.32632000000000044,-0.22699100000000022 q-0.19942000000000018,-0.09078000000000011 -0.56442,-0.1423100000000001 q-0.33772000000000035,-0.04768000000000003 -0.5749400000000005,-0.01854 q-0.2372300000000001,0.029140000000000013 -0.3890900000000002,0.11903300000000011 q-0.1552700000000001,0.08941000000000006 -0.23494000000000018,0.2347350000000001 q-0.07970000000000008,0.14532 -0.10470000000000006,0.322705 q-0.02500000000000002,0.17738600000000004 0.003000000000000004,0.3239910000000002 q0.028500000000000015,0.14319300000000001 0.15395000000000014,0.289636 q0.11714000000000008,0.131354 0.33948000000000045,0.232328 q0.22281000000000015,0.09756000000000015 0.5741700000000004,0.1471670000000001 q0.3138400000000003,0.044310000000000065 0.5539900000000004,0.019060000000000014 q0.23675000000000004,-0.025730000000000013 0.3925000000000003,-0.11855200000000007 q0.1484500000000001,-0.09038000000000006 0.2310400000000001,-0.231805 q0.08310000000000008,-0.1448380000000001 0.11053000000000006,-0.3392810000000002 q0.023600000000000027,-0.1671520000000001 -0.010000000000000007,-0.3249530000000002 q-0.03630000000000001,-0.16169400000000014 -0.15443000000000018,-0.286225 z" style="font-style:normal;font-variant:normal;font-weight:bold;font-stretch:normal;font-size:7.05555344px;font-family:sans-serif;-inkscape-font-specification:'sans-serif Bold';fill:#ffffff;stroke-width:0.26458326" id="path3593" inkscape:connector-curvature="0"/>
            <path d="m89.81558268083575,-46.29460854437255 l-0.06330000000000002,1.2455180000000001 l-1.91645,-0.09736000000000011 q-0.2339600000000001,-0.011890000000000012 -0.46571,0.00048600000000000054 q-0.23519,0.012200000000000011 -0.3482600000000003,0.06510000000000007 q-0.1308,0.062350000000000065 -0.19611000000000015,0.19356000000000018 q-0.06510000000000007,0.127773 -0.07720000000000007,0.3651790000000002 q-0.009000000000000011,0.16859200000000021 0.03760000000000003,0.34686200000000045 q0.046300000000000056,0.17483 0.15642000000000014,0.3839470000000002 l2.73876,0.139139 l-0.06290000000000005,1.238637 l-3.86386,-0.19629900000000025 l0.06290000000000005,-1.238636 l0.4266500000000002,0.02168000000000002 q-0.24127,-0.34341300000000036 -0.3635200000000003,-0.6531830000000004 q-0.12207000000000005,-0.313211 -0.10319000000000007,-0.6848020000000006 q0.03180000000000003,-0.6261990000000007 0.4143500000000002,-0.9586180000000004 q0.3827200000000002,-0.33585900000000035 1.1087,-0.29897600000000035 z" style="font-style:normal;font-variant:normal;font-weight:bold;font-stretch:normal;font-size:7.05555344px;font-family:sans-serif;-inkscape-font-specification:'sans-serif Bold';fill:#ffffff;stroke-width:0.26458326" id="path3595" inkscape:connector-curvature="0"/>
          </g>
        </g>
      </g>
    </g>
  </g></g></svg>