<svg xmlns="http://www.w3.org/2000/svg" xmlns:xlink="http://www.w3.org/1999/xlink" version="1.1" width="96" height="18" style="enable-background:new -363 283.3 114 30;" xml:space="preserve"><rect id="backgroundrect" width="100%" height="100%" x="0" y="0" fill="none" stroke="none"/>
<style type="text/css">
	.st0{fill:#003296;}
</style>

<g class="currentLayer" style=""><title>Layer 1</title><path class="st0" d="M81.5999694824219,13.338531494140625 c-0.8,-0.2 -1,-0.6000000000000001 -1.1,-1.4 c-0.2,-1.3 -0.2,-4.5 0,-5.9 c0.1,-0.7000000000000001 0.5,-1.1 1.1,-1.3 c0.7000000000000001,-0.2 7.1,-0.30000000000000004 7.8,0 c0.6000000000000001,0.2 0.8,0.6000000000000001 0.9,1.2 c0.30000000000000004,1.3 0.30000000000000004,4.6 0,5.9 c-0.1,0.6000000000000001 -0.30000000000000004,0.9 -0.9,1.2 C88.79996948242189,13.538531494140614 82.49996948242188,13.538531494140614 81.5999694824219,13.338531494140625 zM91.49996948242188,0.338531494140625 c-1.9,-0.4 -9.2,-0.5 -12.1,0 c-2.2,0.4 -3.9,2 -4.4,4 c-0.4,2.3 -0.4,7.4 0,9.5 c0.4,1.9 2,3.6 4.4,4 c2.5,0.5 9.9,0.4 12.2,-0.1 c2.7,-0.6000000000000001 3.8,-2.6 4.1,-3.9 c0.4,-2 0.4,-7.1 0,-9.5 C95.19996948242186,2.2385314941406023 93.39996948242185,0.7385314941406023 91.49996948242188,0.338531494140625 zM66.39996948242185,0.43853149414064774 h5.5 v17.3 h-5.5 V0.43853149414064774 zM57.5999694824219,11.138531494140636 c0.9,0.2 1.1,0.9 1.1,1.5 s-0.1,1.3 -1.1,1.4 c-1.1,0.2 -4.8,0.2 -6.2,0 c-0.6000000000000001,-0.1 -1.3,-0.1 -1.5,-1.2 v-0.30000000000000004 h-5.5 c0,0.1 0,0.4 0.1,0.8 c0.2,2.3 1.1,3.9 3.7,4.4 c2.1,0.4 10,0.5 12.4,0 c2.8,-0.6000000000000001 3.5,-3.1 3.5,-5.3 c0,-2.5 -0.9,-4.2 -3.1,-4.9 c-0.6000000000000001,-0.2 -2,-0.30000000000000004 -2.6,-0.30000000000000004 c-0.5,0 -6.4,-0.2 -7.7,-0.4 c-0.8,-0.1 -1,-0.6000000000000001 -1,-1.3 c0,-0.7000000000000001 0.1,-1.2 1.1,-1.4 c1.2,-0.2 5.9,-0.2 6.4,0 c0.6000000000000001,0.2 0.8,0.6000000000000001 0.8,1.1 v0.4 h5.5 c0,-0.4 -0.1,-0.7000000000000001 -0.1,-1 c-0.30000000000000004,-2.7 -1.8,-4.2 -4.5,-4.4 c-2.7,-0.30000000000000004 -8.9,-0.2 -10.8,0.1 c-1.8,0.4 -3.6,1.5 -3.6,5.2 c0,3 1.4,4.5 3.8,5 c0.7000000000000001,0.1 2.7,0.2 3,0.2 C51.999969482421875,10.838531494140625 57.199969482421864,11.038531494140614 57.5999694824219,11.138531494140636 zM35.89996948242185,11.038531494140614 h-6.1 l2.6,-6.9 h0.9 L35.89996948242185,11.038531494140614 zM37.0999694824219,14.638531494140636 l1.2,3.1 h5.9 l-7.4,-17.4 h-8 l-7.3,17.4 h5.9 l1.2,-3.2 L37.0999694824219,14.638531494140636 L37.0999694824219,14.638531494140636 zM5.699969482421864,12.038531494140614 c0.1,1 0.6000000000000001,1.2 1.1,1.3 c0.8,0.2 6.5,0.2 7.5,0 c0.7000000000000001,-0.1 1.2,-0.6000000000000001 1.3,-1.2 c0,-0.30000000000000004 0.1,-0.8 0.1,-1 h5.7 c0,0.4 0,1.4 -0.1,2.3 c-0.30000000000000004,2.1 -1.5,3.8 -4.1,4.4 c-1.8,0.4 -10.5,0.4 -12.5,0 c-2.1,-0.5 -3.9,-1.8 -4.4,-4 c-0.4,-2 -0.4,-7.2 0,-9.4 c0.30000000000000004,-1.6 1.8,-3.5 4.3,-4 c2.3,-0.4 10.4,-0.5 12.6,0 c2.9,0.7000000000000001 3.8,3.3 3.9,4.2 c0.1,1 0.1,1.7000000000000002 0.1,2.1 h-5.7 c0,-0.4 0.1,-1.5 -0.9,-1.8 c-0.6000000000000001,-0.2 -6.2,-0.2 -7.6,-0.1 c-0.7000000000000001,0.1 -1.1,0.4 -1.2,1.1 C5.499969482421875,7.338531494140625 5.499969482421875,10.738531494140602 5.699969482421864,12.038531494140614 z" id="svg_1"/></g></svg>