<svg xmlns:dc="http://purl.org/dc/elements/1.1/" xmlns:cc="http://creativecommons.org/ns#" xmlns:rdf="http://www.w3.org/1999/02/22-rdf-syntax-ns#" xmlns:svg="http://www.w3.org/2000/svg" xmlns="http://www.w3.org/2000/svg" version="1.1" height="105.33057976303166" width="132.26446254936832">
  <defs id="defs2"/>
  <metadata id="metadata5">
    <rdf:RDF>
      <cc:Work rdf:about="">
        <dc:format>image/svg+xml</dc:format>
        <dc:type rdf:resource="http://purl.org/dc/dcmitype/StillImage"/>
        <dc:title/>
      </cc:Work>
    </rdf:RDF>
  </metadata>
  
<g class="currentLayer" style=""><title>Layer 1</title><g id="layer1" class="">
    <rect y="0" x="0" height="144.55859375" width="111.19891357421875" id="backgroundrect" style="fill: none; stroke: none; stroke-width: 0.636493;" class="selected"/>
    <path style="fill:none;stroke:#5d5d5d;stroke-width:0.29596919;stroke-linecap:butt;stroke-linejoin:miter;stroke-miterlimit:4;stroke-dasharray:0.8879075, 0.29596917;stroke-dashoffset:0;stroke-opacity:1" d="M43.740627657416525,80.56051625843794 L110.56544265262195,20.75041814897003 " id="path1985"/>
    <ellipse style="opacity:1;fill:#3cc5a8;fill-opacity:1;stroke:none;stroke-width:0.29596916;stroke-miterlimit:4;stroke-dasharray:0.88790752, 0.29596917;stroke-dashoffset:0;stroke-opacity:1" id="path2006" cx="42.94024610519409" cy="19.03114914894104" rx="6.680312633514404" ry="6.273978233337402"/>
    <ellipse ry="6.273978233337402" rx="6.680312633514404" cy="17.349079370498657" cx="117.74121809005737" id="ellipse2017" style="opacity:1;fill:#47c8ba;fill-opacity:1;stroke:none;stroke-width:0.29596916;stroke-miterlimit:4;stroke-dasharray:0.88790752, 0.29596917;stroke-dashoffset:0;stroke-opacity:1"/>
    <ellipse style="opacity:1;fill:#4ec6de;fill-opacity:1;stroke:none;stroke-width:0.29596916;stroke-miterlimit:4;stroke-dasharray:0.88790752, 0.29596917;stroke-dashoffset:0;stroke-opacity:1" id="ellipse2046" cx="111.35618543624878" cy="80.7214605808258" rx="6.680312633514404" ry="6.273978233337402"/>
    <text transform="matrix(1.0066374579264368,0,0,0.9252930790553187,-22.69039671960485,-43.99861473108194) " xml:space="preserve" style="font-style:normal;font-variant:normal;font-weight:bold;font-stretch:normal;font-size:4.67765236px;line-height:1.25;font-family:sans-serif;-inkscape-font-specification:'sans-serif Bold';letter-spacing:0.64683169px;word-spacing:0px;fill:#4d4d4d;fill-opacity:1;stroke:none;stroke-width:0.16840538" x="72.58729954505655" y="71.35845645204247" id="text2127"><tspan id="tspan2125" x="72.58729954505655" y="71.35845645204247" style="font-style:normal;font-variant:normal;font-weight:normal;font-stretch:normal;font-size:2.92353296px;font-family:sans-serif;-inkscape-font-specification:sans-serif;letter-spacing:-0.2389988px;fill:#4d4d4d;stroke-width:0.16840538">Reward</tspan></text>
    <text transform="matrix(1.0066374579264368,0,0,0.9252930790553187,-22.69039671960485,-43.99861473108194) " xml:space="preserve" style="font-style:normal;font-variant:normal;font-weight:normal;font-stretch:normal;font-size:4.67765236px;line-height:1.25;font-family:sans-serif;-inkscape-font-specification:sans-serif;letter-spacing:0.64683169px;word-spacing:0px;fill:#4d4d4d;fill-opacity:1;stroke:none;stroke-width:0.16840538" x="120.60632254505654" y="57.53751445204248" id="text2131"><tspan id="tspan2129" x="120.60632254505654" y="57.53751445204248" style="font-style:normal;font-variant:normal;font-weight:normal;font-stretch:normal;font-size:2.92353296px;font-family:sans-serif;-inkscape-font-specification:sans-serif;letter-spacing:-0.11840306px;fill:#4d4d4d;stroke-width:0.16840538">Enterpreneur</tspan></text>
    <text transform="matrix(1.0066374579264368,0,0,0.9252930790553187,-22.69039671960485,-43.99861473108194) " xml:space="preserve" style="font-style:normal;font-variant:normal;font-weight:bold;font-stretch:normal;font-size:4.67765236px;line-height:1.25;font-family:sans-serif;-inkscape-font-specification:'sans-serif Bold';letter-spacing:0.64683169px;word-spacing:0px;fill:#4d4d4d;fill-opacity:1;stroke:none;stroke-width:0.16840538" x="130.44985254505656" y="143.8127314520425" id="text2135"><tspan id="tspan2133" x="130.44985254505656" y="143.8127314520425" style="font-style:normal;font-variant:normal;font-weight:normal;font-stretch:normal;font-size:2.92353296px;font-family:sans-serif;-inkscape-font-specification:sans-serif;letter-spacing:-0.07674275px;fill:#4d4d4d;stroke-width:0.16840538">Risk</tspan></text>
    <ellipse ry="7.298699378967285" rx="7.771398544311523" cy="47.91592621803284" cx="80.44899702072144" id="ellipse2137" style="opacity:1;fill:#6fc0ec;fill-opacity:1;stroke:none;stroke-width:0.29596916;stroke-miterlimit:4;stroke-dasharray:0.88790752, 0.29596917;stroke-dashoffset:0;stroke-opacity:1"/>
    <text transform="matrix(1.0066374579264368,0,0,0.9252930790553187,-22.69039671960485,-43.99861473108194) " xml:space="preserve" style="font-style:normal;font-variant:normal;font-weight:bold;font-stretch:normal;font-size:4.67765236px;line-height:1.25;font-family:sans-serif;-inkscape-font-specification:'sans-serif Bold';letter-spacing:0.64683169px;word-spacing:0px;fill:#4d4d4d;fill-opacity:1;stroke:none;stroke-width:0.16840538" x="103.26720254505655" y="107.08033145204249" id="text2160"><tspan id="tspan2158" x="103.25076254505655" y="107.08033145204249" style="font-style:normal;font-variant:normal;font-weight:normal;font-stretch:normal;font-size:2.92353296px;font-family:sans-serif;-inkscape-font-specification:sans-serif;text-align:center;letter-spacing:-0.03288974px;text-anchor:middle;fill:#4d4d4d;stroke-width:0.16840538" dy="2.9170873">Blur Collar</tspan><tspan x="103.25076254505655" y="112.92739145204249" style="font-style:normal;font-variant:normal;font-weight:normal;font-stretch:normal;font-size:2.92353296px;font-family:sans-serif;-inkscape-font-specification:sans-serif;text-align:center;letter-spacing:-0.03288974px;text-anchor:middle;fill:#4d4d4d;stroke-width:0.16840538" id="tspan2162">Employee</tspan></text>
    <path style="stroke-width:1.2093364;stroke-miterlimit:4;stroke-dasharray:none" d="m81.4844400741545,46.70432958626549 c0.09313298888046322,0 0.1687396038949243,-0.06947817481351862 0.1687396038949243,-0.155103583170654 c0,-0.0856051410745813 -0.07556801066673849,-0.15511033893150555 -0.1687396038949243,-0.15511033893150555 c-0.0933260106190756,0 -0.1687396038949243,0.06946852372658799 -0.1687396038949243,0.15511033893150555 c0,0.0856051410745813 0.07537498892812616,0.155103583170654 0.1687396038949243,0.155103583170654 zm0,0 " id="path2296"/>
    <path style="stroke-width:1.2093364;stroke-miterlimit:4;stroke-dasharray:none" d="m79.79701508194447,46.70432958626549 c0.09313298888046322,0 0.1687396038949243,-0.06947817481351862 0.1687396038949243,-0.155103583170654 c0,-0.0856051410745813 -0.07556801066673849,-0.15511033893150555 -0.1687396038949243,-0.15511033893150555 c-0.0933260106190756,0 -0.1687396038949243,0.06946852372658799 -0.1687396038949243,0.15511033893150555 c0,0.0856051410745813 0.07537498892812616,0.155103583170654 0.1687396038949243,0.155103583170654 zm0,0 " id="path2298"/>
    <path style="stroke-width:1.2093364;stroke-miterlimit:4;stroke-dasharray:none" d="m80.18960199610814,47.7704504155779 c0.14165865396761013,0.06133265744407713 0.2934606002993,0.09251531931690367 0.4510628498762908,0.09251531931690367 c0.1541761137166217,0 0.3030151763606119,-0.02986046296333193 0.4424154759864573,-0.08876104650089331 c0.08473654325082564,-0.03580553251259256 0.12174846162974519,-0.12790682020017255 0.08290283673400814,-0.2057650337955468 c-0.03899039119969652,-0.07779741174771122 -0.13914937136564942,-0.11191110872136642 -0.22384731026875251,-0.0760698671871306 c-0.09487018452797447,0.03998445315355015 -0.19630310816876895,0.06040615309873776 -0.3014323981039903,0.06040615309873776 c-0.1075131084070839,0 -0.21086659834707144,-0.021203437986567653 -0.3071651437407773,-0.06286718026604526 c-0.08435049977360087,-0.03651006185852768 -0.18489552341677848,-0.003570902164328643 -0.22457114178854878,0.07414930088793764 c-0.039762478154145964,0.07747892587900083 -0.0038604347722471814,0.16988615302228163 0.08068308673996599,0.206424203032908 zm0,0 " id="path2300"/>
    <path style="fill:#000000;fill-opacity:1;stroke-width:0.37049186;stroke-miterlimit:4;stroke-dasharray:none" d="m84.17053058868409,50.20616857251862 c0,-0.8529061215151229 -1.0567554145549416,-1.5217968987415391 -1.9625581784280879,-1.5534939635477678 l-0.46213264658570924,-0.3816406513669699 c0.5628513897936378,-0.37747041670425 0.9044902160505834,-0.9840875555108536 0.9044902160505834,-1.6287492789979545 v-1.023700441817575 c0,-0.9407580356271521 -0.8353498292796356,-1.7061770541162227 -1.8621096656542164,-1.7061770541162227 h-0.6749680666666275 c-1.025370079856572,0 -1.8502388287295566,0.7626858306703209 -1.8502388287295566,1.7061770541162227 v1.023700441817575 c0,0.6435779064247928 0.33709316431262387,1.2490407752344945 0.8926290302128537,1.6258404413970657 l-0.465626340054593,0.38454948896785845 c-0.9038242910523695,0.03162661187163499 -1.9625581784280879,0.6988332744286596 -1.9625581784280879,1.5534939635477678 v1.492608151428578 c0,0.08570165194388746 0.07556801066673849,0.1551026180619611 0.1687396038949243,0.1551026180619611 h7.105583799406664 c0.09322949974976942,0 0.1687492549818548,-0.06948782590044916 0.1687492549818548,-0.1551026180619611 zm-4.095313274877623,0.6240103276729642 h0.7466273871264656 l0.17691407452515753,0.713475903519793 h-1.1055995655107989 zm0.761123319696253,-0.31022453829778335 h-0.7717974218415167 l-0.12945968008730924,-0.37073685335275786 l0.5140072388377805,-0.23622965480073535 l0.5250191290256156,0.2413736841347546 zm-0.3873174206995595,-1.0730203913591119 l-0.5863807397304847,-0.862234862142258 c0.1904352473149533,0.04858357160873074 0.388311482653413,0.07392732588853346 0.5880986332041352,0.07392732588853346 c0.19787623533845966,0 0.39430480763732695,-0.02473573580317381 0.5837459929984267,-0.0726147780659695 zm0.24151845043871395,0.23023536470812858 l0.8101604923907226,-1.1915955756060699 l0.43695296078372736,0.360868616966201 l-0.5559991180728999,1.148454251917515 zm-0.5772894158418427,-5.454554986229378 h0.6749680666666275 c0.8406868803522675,0 1.5246208067774378,0.6261876128845121 1.5246208067774378,1.3959698877749154 v0.1281953876993981 l-0.316854835019118,-0.4193860523526167 c-0.028663728183935294,-0.0379287716373285 -0.0743133693657581,-0.06219160418090208 -0.12451832357883262,-0.06612924764859424 c-0.05018565203921334,-0.004149967380165713 -0.09952200842853236,0.013077222790987334 -0.13472917355142652,0.04605498683290883 c-0.34301893168802317,0.3224572909823416 -0.7401611588829511,0.4662951603788848 -1.2876480182830452,0.4662951603788848 c-0.5474289528785112,0 -0.9446290865950228,-0.1438378693965437 -1.2879182487171024,-0.4662951603788848 c-0.03532297816606167,-0.03327694773677071 -0.08512258672805036,-0.05006018790911532 -0.13538544746270856,-0.04605498683290883 c-0.05037867377782569,0.004149967380165713 -0.09612482582895486,0.028683030357796544 -0.1245762301004164,0.06709435634165607 l-0.3007085665841938,0.40503392097809443 v-0.11487978306122464 c0,-0.7697832399990968 0.6785968753525394,-1.395964097122757 1.5127499698527778,-1.395964097122757 zm-1.5127499698527778,2.4196703295924893 v-0.3584954146899618 l0.4686567813508075,-0.6312756659143336 c0.3754562348618299,0.2935522856251407 0.8191263521492672,0.4313948998203845 1.379931711513614,0.4313948998203845 c0.5614037267540455,0 1.0054019809971235,-0.1381427629987859 1.3809257734674678,-0.432307892644021 l0.48282457696495473,0.6390911161107486 v0.3515929573171838 c0,0.9288910591372637 -0.8259786238700061,1.706178019224916 -1.8621000145672866,1.706178019224916 c-1.0327628124454256,0 -1.8502388287295566,-0.774872258137611 -1.8502388287295566,-1.706178019224916 zm0.7967840859048866,1.8433537433132536 l0.8102956076077519,1.191530913323635 l-0.6912591014055102,0.31772729327764593 l-0.555989466985969,-1.148454251917515 zm-2.332339574174715,1.7205301505994375 c0,-0.638966617089343 0.8450298694710454,-1.1906874083258991 1.5834731348803466,-1.2408479675390927 l0.6313355026533037,1.3039274717176121 c0.018723108645398816,0.038700858591778006 0.053853065072848136,0.06861922807669363 0.09722504973904525,0.08290283673400814 c0.04333338031847462,0.014283608657314557 0.0912027714943397,0.011677815186047723 0.13242256377500877,-0.006755760851432567 l0.12023324098163844,-0.05520421724313462 l0.13690066811081542,0.3918920359046725 l-0.22002547984422793,0.8621701998598229 h-2.4815646802959286 zm6.7680949405298865,1.3374862311927567 h-2.4881660237564716 l-0.21316355703655837,-0.8598056835618223 l0.14679303221469894,-0.38957577504132385 l0.11007064644369767,0.050668206385744215 c0.04149967380165715,0.019109152122623534 0.08946557584682845,0.021521923855278034 0.13242256377500877,0.006755760851432567 c0.04333338031847462,-0.014283608657314557 0.07855984761523002,-0.044394999880842556 0.09722504973904525,-0.08290283673400814 l0.6313355026533037,-1.3039236112828396 c0.7384529164962317,0.05017600095228268 1.5834827859672762,0.6018823155584436 1.5834827859672762,1.2408537581912509 zm0,0 " id="path2302"/>
    <path style="stroke-width:1.2093364;stroke-miterlimit:4;stroke-dasharray:none" d="m82.83438585857468,50.830178900191584 h-0.6749777177535579 c-0.09322949974976942,0 -0.1687396038949243,0.06948782590044916 -0.1687396038949243,0.1551026180619611 c0,0.08570165194388746 0.07556801066673849,0.1551122691488916 0.1687396038949243,0.1551122691488916 h0.6749777177535579 c0.09322949974976942,0 0.1687396038949243,-0.06948782590044916 0.1687396038949243,-0.1551122691488916 c0,-0.08570165194388746 -0.07556801066673849,-0.1551026180619611 -0.1687396038949243,-0.1551026180619611 zm0,0 " id="path2304"/>
    <path style="stroke-width:1.2093364;stroke-miterlimit:4;stroke-dasharray:none" d="m83.50005992852711,50.830178900191584 c0.09313298888046322,0 0.1687396038949243,0.06948782590044916 0.1687396038949243,0.1551026180619611 c0,0.0856051410745813 -0.07556801066673849,0.1551122691488916 -0.1687396038949243,0.1551122691488916 c-0.09313298888046322,0 -0.1687396038949243,-0.06948782590044916 -0.1687396038949243,-0.1551122691488916 c0,-0.0856051410745813 0.07556801066673849,-0.1551026180619611 0.1687396038949243,-0.1551026180619611 zm0,0 " id="path2306"/>
    <g id="g2382" style="stroke-width:11.86020947">
      <path id="path2344" d="m116.4073817658986,20.17268613990677 c0,0.23313874562249173 0.16608680983992694,0.43124130679320194 0.3951561573207179,0.49973884367080906 c0.07600832594441219,0.4079751365668177 0.46282234043619724,0.7265134775234919 0.9389011275030099,0.7265134775234919 c0.4699663413995306,0 0.8613230434993904,-0.31443223441779633 0.9387473552849647,-0.7264451602029935 c0.22914623358981356,-0.06849753687760697 0.3953035223630109,-0.26660009804831725 0.3953035223630109,-0.49980716099130645 c0,-0.21958953635206516 0,-0.4145442002981198 0,-0.6343386886116783 c0,-0.5280687408078744 0.23532275101461417,-0.7069429209705805 0.6806535016482117,-1.1131388624923675 c0.5441934724849231,-0.4963170882217444 0.8439788187390832,-1.1573437025088704 0.8439788187390832,-1.861207043575292 c0,-1.4663017171505817 -1.3035270923660751,-2.6516331412516108 -2.906999710380106,-2.6273404443905077 c-1.494858174668362,0.02278618215564645 -2.7547652145157198,1.1580280535986833 -2.808515011898141,2.530650233959249 c-0.028383788580776004,0.7274027805747973 0.2610795975371244,1.4137480294153282 0.8150247915163907,1.9327841603570572 c0.46341820778112125,0.43418307417152885 0.707749447902862,0.6029981178333707 0.707749447902862,1.1400311511868912 zm1.3340572848237269,0.8758945992734174 c-0.25400607550706206,0 -0.46267497539390473,-0.1511603167949557 -0.5392791686832403,-0.35056326282479433 h1.0782572001061423 c-0.07868652540869313,0.2039195454341203 -0.2905590131714698,0.35056326282479433 -0.5389780314229019,0.35056326282479433 zm0.7623129566057717,-0.7007154438417662 h-1.524632320387294 c-0.10511612538514928,0 -0.19058144273931898,-0.07855667337847139 -0.19058144273931898,-0.1751791554316507 v-0.2277322542244862 h1.9057952058659313 v0.2277322542244862 c0,0.09662248205317955 -0.08546531735416962,0.1751791554316507 -0.19058144273931898,0.1751791554316507 zm-2.5320197495020222,-2.193089052898481 c-0.480025607329964,-0.4497170193908963 -0.7308280949610916,-1.0445724193518446 -0.7062629831284285,-1.6748739076875616 c0.04658016771608168,-1.1894369416974888 1.1384910593494546,-2.1731757318582456 2.4339835533226872,-2.19288351199457 c1.3936824623706134,-0.02045985960421706 2.5195129424343756,1.0093312829385708 2.5195129424343756,2.2769827224696244 c0,0.6097733114110017 -0.2597404978049838,1.1824573851007825 -0.7312701900879702,1.61253553061827 c-0.48597787360344913,0.4432845903005897 -0.7933621302993245,0.6925038197064296 -0.7933621302993245,1.36181037544939 v0.05624989035114478 h-1.9057952058659313 v-0.05447128424853299 c0,-0.682991810711965 -0.3405862414420569,-0.9389856447530185 -0.8168059863754102,-1.385349814957765 zm0,0 " style="stroke-width:11.86020947" stroke-width="0"/>
      <path id="path2346" d="m121.58319444589398,16.3888229787382 c-0.10526349042744222,0 -0.19057503556356709,0.07842003873747598 -0.19057503556356709,0.17517856648923252 c0,0.0967591166941747 0.0853115451361248,0.1751791554316507 0.19057503556356709,0.1751791554316507 h0.381162885478638 c0.10526349042744222,0 0.19057503556356709,-0.07842003873747598 0.19057503556356709,-0.1751791554316507 c0,-0.09675852775175674 -0.0853115451361248,-0.17517856648923252 -0.19057503556356709,-0.17517856648923252 zm0,0 " style="stroke-width:11.86020947" stroke-width="0"/>
      <path id="path2348" d="m113.57886995847886,16.3888229787382 c-0.10526349042744222,0 -0.19058144273931898,0.07842003873747598 -0.19058144273931898,0.17517856648923252 c0,0.0967591166941747 0.08531795231187661,0.1751791554316507 0.19058144273931898,0.1751791554316507 h0.3811564783028861 c0.10526989760319407,0 0.19058144273931898,-0.07842003873747598 0.19058144273931898,-0.1751791554316507 c0,-0.09675852775175674 -0.0853115451361248,-0.17517856648923252 -0.19058144273931898,-0.17517856648923252 zm0,0 " style="stroke-width:11.86020947" stroke-width="0"/>
      <path id="path2350" d="M117.96219188407723,13.060424561595575 V12.604959523098426 c0,-0.09675894001144936 -0.0853115451361248,-0.1751788609604416 -0.19058144273931898,-0.1751788609604416 c-0.10526349042744222,0 -0.19057503556356709,0.07841992094899237 -0.19057503556356709,0.1751788609604416 v0.455465038497148 c0,0.09675894001144936 0.0853115451361248,0.1751788609604416 0.19057503556356709,0.1751788609604416 c0.10526989760319407,0 0.19058144273931898,-0.07841992094899237 0.19058144273931898,-0.1751788609604416 zm0,0 " style="stroke-width:11.86020947" stroke-width="0"/>
      <path id="path2352" d="m114.941657019374,14.210514613706358 c0.07444497506095626,0.06836090223661172 0.19504724423837114,0.0684292195571094 0.26956910540834983,0 c0.07444497506095626,-0.0684292195571094 0.07444497506095626,-0.17935299034860766 0,-0.2477822099057168 l-0.2694922192993272,-0.2477138925852193 c-0.07444497506095626,-0.06836090223661172 -0.19504724423837114,-0.06836090223661172 -0.2695626982325978,0 c-0.07437449612768571,0.0684292195571094 -0.07437449612768571,0.17935299034860766 0,0.2477822099057168 zm0,0 " style="stroke-width:11.86020947" stroke-width="0"/>
      <path id="path2354" d="m120.60148697719276,19.412984579239446 c0.07444497506095626,0.06836090223661172 0.19504724423837114,0.06836090223661172 0.26956910540834983,0 c0.07436808895193393,-0.0684292195571094 0.07436808895193393,-0.17935299034860766 0,-0.2477822099057168 l-0.2694922192993272,-0.2477133036428013 c-0.07444497506095626,-0.06836149117902976 -0.19504724423837114,-0.06836149117902976 -0.2695626982325978,0 c-0.07444497506095626,0.0684292195571094 -0.07444497506095626,0.17935299034860766 0,0.2477822099057168 zm0,0 " style="stroke-width:11.86020947" stroke-width="0"/>
      <path id="path2356" d="m114.67217120725043,19.412984579239446 c0.07444497506095626,0.06836090223661172 0.19511772317164144,0.06836090223661172 0.2695626982325978,0 l0.2694922192993272,-0.2477133036428013 c0.07444497506095626,-0.0684292195571094 0.07444497506095626,-0.17935299034860766 0,-0.2477822099057168 c-0.07444497506095626,-0.06836149117902976 -0.1951241303473935,-0.06836149117902976 -0.26956910540834983,0 l-0.2694858121235753,0.2477133036428013 c-0.07437449612768571,0.0684292195571094 -0.07437449612768571,0.17935299034860766 0,0.2477822099057168 zm0,0 " style="stroke-width:11.86020947" stroke-width="0"/>
      <path id="path2358" d="m120.87105608260111,13.715018511215426 c-0.07444497506095626,-0.06836090223661172 -0.1951241303473935,-0.06836090223661172 -0.26956910540834983,0 l-0.2694858121235753,0.2477138925852193 c-0.07444497506095626,0.0684292195571094 -0.07444497506095626,0.17935299034860766 0,0.2477822099057168 c0.07444497506095626,0.06836090223661172 0.19511772317164144,0.06836090223661172 0.2695626982325978,0 l0.2694922192993272,-0.2477138925852193 c0.07436808895193393,-0.0684292195571094 0.07436808895193393,-0.17935299034860766 0,-0.2477822099057168 zm0,0 " style="stroke-width:11.86020947" stroke-width="0"/>
      <path id="path2360" d="m119.48682420446448,16.564001545227445 c0,-0.869324946599697 -0.7694633647448557,-1.576609454172765 -1.7152137631266124,-1.576609454172765 c-0.945750398381757,0 -1.7152137631266124,0.707284507573068 -1.7152137631266124,1.576609454172765 c0,0.8693255355421149 0.7694633647448557,1.5766100431151826 1.7152137631266124,1.5766100431151826 c0.945750398381757,0 1.7152137631266124,-0.707284507573068 1.7152137631266124,-1.5766100431151826 zm-3.0492646407745876,0 c0,-0.676148888756254 0.5984622511032465,-1.226251732251882 1.334050877647976,-1.226251732251882 c0.7355950337204811,0 1.3340572848237269,0.5501028434956281 1.3340572848237269,1.226251732251882 c0,0.676149477698673 -0.5984622511032465,1.2262523211943002 -1.3340572848237269,1.2262523211943002 c-0.7355886265447289,0 -1.334050877647976,-0.5501028434956281 -1.334050877647976,-1.2262523211943002 zm0,0 " style="stroke-width:11.86020947" stroke-width="0"/>
      <path id="path2362" d="m117.58103540577432,15.512928379464785 v0.20528824761374598 c-0.22184846040843567,0.07232978519207556 -0.381162885478638,0.2670789082342195 -0.381162885478638,0.4954271962280201 c0,0.28979795095420435 0.2564664309957793,0.5255368773525335 0.5717379210422044,0.5255368773525335 c0.10511612538514928,0 0.19058144273931898,0.07855667337847139 0.19058144273931898,0.17517856648923252 c0,0.09662248205317955 -0.08546531735416962,0.1751791554316507 -0.19058144273931898,0.1751791554316507 c-0.08144161098199647,0 -0.16928399054010906,-0.04708005690158637 -0.24745153471290082,-0.13254738061384821 c-0.06774947640025414,-0.07404066291660794 -0.18797372220830855,-0.08362040028915249 -0.26852473576079505,-0.021349162655522957 c-0.08055101355248669,0.06227064869121133 -0.09096908132502426,0.17278392661730554 -0.023193976221762808,0.2468245895339132 c0.1018420585759446,0.1114025809774002 0.221694688190391,0.1890016339840679 0.34862724701065134,0.22814333603230844 v0.20446608399810168 c0,0.0967591166941747 0.0853115451361248,0.1751791554316507 0.19057503556356709,0.1751791554316507 c0.10526989760319407,0 0.19058144273931898,-0.07842003873747598 0.19058144273931898,-0.1751791554316507 v-0.20528765867132806 c0.22184846040843567,-0.07232978519207556 0.3811564783028861,-0.2670789082342195 0.3811564783028861,-0.49542778517043834 c0,-0.28979736201178624 -0.25646002382002736,-0.5255362884101155 -0.5717379210422044,-0.5255362884101155 c-0.10511612538514928,0 -0.19057503556356709,-0.07855667337847139 -0.19057503556356709,-0.1751791554316507 c0,-0.09662189311076126 0.08545891017841771,-0.17517856648923252 0.19057503556356709,-0.17517856648923252 c0.06752522524893881,0 0.1387666124339609,0.03168510209288651 0.2061380654648546,0.0915581662000804 c0.07563670975080383,0.06726605828139472 0.19623897892821834,0.06548686323636467 0.2694922192993272,-0.004063702684775412 c0.07318276143783826,-0.0695240635123264 0.07117090825175171,-0.18044783430382477 -0.004485023026307723,-0.2477138925852193 c-0.09670350362294636,-0.08608394642399528 -0.19348389335491525,-0.13473706852428236 -0.2805830405258113,-0.16128777061631774 v-0.20405618007511567 c0,-0.09675852775175674 -0.0853115451361248,-0.17517856648923252 -0.19058144273931898,-0.17517856648923252 c-0.10526349042744222,0 -0.19057503556356709,0.07842003873747598 -0.19057503556356709,0.17517856648923252 zm0,0 " style="stroke-width:11.86020947" stroke-width="0"/>
    </g>
    <g id="g2461" style="stroke-width:14.24670601">
      <g id="g6238" style="stroke-width:14.24670601" stroke-width="0">
        <path style="stroke-width:14.24670601" d="m46.06217970835934,18.76887062437242 c0.0332788708552033,-0.1732350565095574 0.003780233693602228,-0.3509130946211357 -0.08106230617748579,-0.5059757438783118 c0.08484253987108803,-0.15506264925717625 0.11428094958062154,-0.33274068736875545 0.08106230617748579,-0.5060322823504475 c-0.0332212062734365,-0.1732350565095574 -0.12698509766142577,-0.3309179105847872 -0.2644446462420053,-0.4499779208821072 c0.022059906113682148,-0.17237991211850018 -0.01636392687027133,-0.34857734899101744 -0.11211212058861422,-0.5009620770731679 c-0.09568796626627533,-0.1523853170245692 -0.24250583575003376,-0.27110315177698324 -0.41591028101616917,-0.33974792425911104 c-0.04344065159766629,-0.16890515185180843 -0.14508216557257744,-0.3223729450408151 -0.2917135862419563,-0.43550819461221635 c-0.14669357027417218,-0.11307812215684751 -0.3287746129434878,-0.17847546614566354 -0.5173006337016065,-0.18844449445656128 c-0.10368284016945632,-0.1450936209462787 -0.25632611384681336,-0.25737431506904146 -0.436237686806546,-0.31753066047933326 c-0.1798500640725148,-0.06015693435271 -0.3753176190402089,-0.06437199523893289 -0.5561588732015371,-0.014470315212308946 c-0.15140348516937074,-0.10373572857879064 -0.3366451876370827,-0.16127186917102956 -0.5280839104920007,-0.16127186917102956 c-0.1913772139677009,0 -0.3766187882918979,0.05753378482256664 -0.5280223375330256,0.16127186917102956 c-0.18084144637660143,-0.04990109108420584 -0.376308809129023,-0.04568426337072873 -0.556220638375785,0.014470315212308946 c-0.17984974371372725,0.06021347282484604 -0.3324928251758119,0.1724941669476086 -0.4361759857040561,0.31753066047933326 c-0.18852634111690725,0.010023799955779343 -0.37066921303222805,0.07536637229971357 -0.5173006977733635,0.18844449445656128 c-0.1466315488128941,0.11313524957140164 -0.24826960291289926,0.2666030427604076 -0.29171371438547156,0.4355653220267704 c-0.17346640265565608,0.0686441835397098 -0.32022186624759136,0.18730547981998774 -0.4159723665492051,0.33969079684455716 c-0.09568854291209303,0.15238472808215114 -0.13411269625483388,0.32858216495466863 -0.11204977876854848,0.5009620770731679 c-0.13745929229354964,0.11906001029732041 -0.23122657948468733,0.2767428643725499 -0.2644449025290355,0.4499779208821072 c-0.0332801522903537,0.17329159498169333 -0.003780233693602228,0.35096963309327184 0.08106256246451592,0.5060322823504475 c-0.0848429883733906,0.15506264925717625 -0.11434284289838456,0.33274068736875545 -0.08106256246451592,0.5059757438783118 c0.033218002685560605,0.17329159498169333 0.12698561023548582,0.3309744490569229 0.2644449025290355,0.4500344593542434 c-0.022063109701558073,0.17238050106091818 0.016361363999970593,0.34857734899101744 0.11204977876854848,0.5009626660155861 c0.09575050030161365,0.15238472808215114 0.2425679212830692,0.27104602436242897 0.4159723665492051,0.33969020790213916 c0.02949991859675146,0.11478723305412543 0.08595854174354844,0.22245415227362278 0.16509991255886666,0.3151383763770785 l-0.6972123988766115,1.3412168259162691 c-0.03935351418554955,0.07565142043006592 -0.028136471596753906,0.1653167256984263 0.02875604549195955,0.23088486298848618 c0.05695466669350663,0.06551159881792418 0.14960627237097165,0.09536155633606291 0.23860155913387518,0.07679043506663936 l1.0502188223701494,-0.21892167564995837 l0.4744762883395132,0.888619289158527 c0.039973728798330437,0.07491053086811711 0.1228953973790082,0.12236338832035007 0.21362593955079076,0.12236338832035007 h0.0012365849201105598 c0.09122639350321952,-0.0003981250746243734 0.17414812615565475,-0.04876443221730486 0.21350189662823435,-0.12441467476253466 l0.6411255200669386,-1.2333225749233907 l0.6411878618870042,1.2333225749233907 c0.03928880171045568,0.07565142043006592 0.12221367387900944,0.12395883333093809 0.21343968295168367,0.12441467476253466 h0.0012814351503736357 c0.09066858478226188,0 0.17359025336293962,-0.04745109062497896 0.2136254910484879,-0.12236338832035007 l0.4744763524112706,-0.888619289158527 l1.050156608693599,0.21892167564995837 c0.08899567119344903,0.01856935444216936 0.181647276870914,-0.01127824730629697 0.23860194356442047,-0.07679043506663936 c0.05695338525835625,-0.06556813729006021 0.06810955967750912,-0.1552334425584207 0.028755404774384367,-0.23088486298848618 l-0.6972122066613397,-1.3412168259162691 c0.07914079416950051,-0.0926842241034558 0.13559954545981245,-0.200351143322953 0.165099464056564,-0.3151383763770785 c0.1734665948709287,-0.0686441835397098 0.3202838236371122,-0.18730547981998774 0.41597243062096256,-0.33969020790213916 c0.09568860698385055,-0.1523853170245692 0.13411243996780395,-0.32858216495466863 0.11211147987103903,-0.5009626660155861 c0.1373973989757867,-0.11906001029732041 0.23122664355644498,-0.2767428643725499 0.2644452869595804,-0.4500344593542434 zm-0.5489693812903652,-0.371364120089082 c0.07102290249188355,0.08356975124119725 0.10021271378224454,0.1912360815182765 0.08025692418547593,0.29542765152866357 c-0.020016017048836165,0.10419157001038713 -0.0875700745886584,0.19613549349431214 -0.18530385207250513,0.25236123720631526 c-0.09258945607267186,0.05320505804965368 -0.1339266318709999,0.15751206077398516 -0.10021271378224454,0.25298787193915634 c0.035636711531890776,0.10083047563038518 0.02305301835522171,0.2111741381400714 -0.03452186295106574,0.3028336024360621 c-0.05751080954876879,0.0916017479390186 -0.15524586846776595,0.15682829862659042 -0.2680397125563783,0.17887418016270595 c-0.10678199108063503,0.020907455841960448 -0.1844356797581269,0.10595780832221921 -0.18827806305652225,0.20627531510645378 c-0.004100592481195635,0.10590068090766512 -0.05695338525835625,0.20564868037361306 -0.14514431517737061,0.2736668181229003 c-0.088189648483864,0.06801754880686905 -0.2042056612580912,0.0986083958869566 -0.31842446123392004,0.08385421042913146 c-0.10814543808063257,-0.014010940126203894 -0.21275860016926024,0.041585224140868335 -0.2536613694516111,0.13461162378923042 c-0.043197178919095316,0.09826739822688633 -0.1300227396853863,0.17539941989601412 -0.2382296866532369,0.21157344109953194 c-0.10814543808063257,0.03617284331868196 -0.22856189916124306,0.028428250520885337 -0.3303860176450829,-0.021307936686257162 c-0.09649398897586035,-0.047109504022490555 -0.21542270384688691,-0.02785697637534446 -0.28849077683876695,0.04676791742000219 c-0.07715841399187247,0.07872746667971549 -0.18747268106451226,0.12390170591638396 -0.3025590126371438,0.12390170591638396 c-0.11508697229020654,0 -0.2254012393628465,-0.04517188346699621 -0.30255946113944676,-0.12390170591638396 C42.59130169536009,20.568097367868624 42.52653841136249,20.543089105969543 42.46078355284556,20.543089105969543 c-0.037990067185552034,0 -0.07629062610803959,0.0083158669433375 -0.11161601297014702,0.025577769217361743 c-0.10176196887904618,0.049730297782961654 -0.22224025920566234,0.05748078000493909 -0.33038569728629513,0.021307936686257162 C41.910636532652,20.55379843489997 41.82381026709638,20.476666413230838 41.78055215593589,20.378399015003957 C41.73964900222299,20.285373204298015 41.63509818195441,20.229887761205546 41.52689085055603,20.243787391214735 C41.41267192243669,20.25848503820041 41.29665565337543,20.227950729592465 41.20846606896332,20.15993318078559 C41.12027635640769,20.091915043036302 41.06741222292946,19.992167043570355 41.063321946001224,19.88626636266269 C41.05947949863107,19.78594885587846 40.98188757512783,19.700897914455787 40.87504362665767,19.679991047556243 C40.762312124389126,19.65794516602013 40.664578410977036,19.592718615332554 40.60700417038832,19.50111686739354 C40.549491887189134,19.409457403097537 40.53691107724155,19.299113740587856 40.57248442180526,19.198283264957468 C40.60619853210928,19.102807453792305 40.564861548526224,18.998502217895222 40.472271772094764,18.94529539301832 C40.37453812275443,18.889069649306307 40.306985923295585,18.797125725822394 40.28703019777057,18.692934155812004 C40.26701245078428,18.58874258580161 40.296264347607675,18.481076255524535 40.36722510049477,18.39750650428334 c0.06718026290645818,-0.07912618069675798 0.06718026290645818,-0.19009706688170327 0,-0.26922324757846094 c-0.07096075288709043,-0.08356975124119725 -0.10021264971048702,-0.1912360815182765 -0.08019490272419792,-0.29542765152866357 c0.019955789596768626,-0.10419157001038713 0.08750792498386524,-0.19619203196644802 0.1852415743241969,-0.25236123720631526 c0.09258977643145955,-0.05320505804965368 0.13392676001451467,-0.15751206077398516 0.10021264971048702,-0.25298787193915634 c-0.035573280491947315,-0.10083047563038518 -0.02299279090315415,-0.2111741381400714 0.03451994079834021,-0.30283301349364405 c0.05757424058871225,-0.09160233688143664 0.15524599661128097,-0.15682888756900842 0.2680394562693486,-0.17887476910512398 c0.10678192700887748,-0.020907455841960448 0.18443587197339936,-0.10595721937980106 0.1882783193435522,-0.20627531510645378 c0.004087778129691894,-0.10590009196524702 0.05695466669350663,-0.20564868037361306 0.14514412296209794,-0.2736662291804823 c0.08812769109434339,-0.06801813774928712 0.20420585347336387,-0.0985518574148206 0.31842478159270776,-0.08385479937154955 c0.10814530993711752,0.014010940126203894 0.2126962583491945,-0.041585224140868335 0.2536613053798539,-0.1346687512037845 c0.04325804708873806,-0.09820968186991422 0.1300843767161194,-0.17534229248145994 0.2382296866532369,-0.2115157247425597 c0.10814543808063257,-0.03623173756049027 0.22856170694597044,-0.028428250520885337 0.33038569728629513,0.021307936686257162 c0.09643228787336984,0.04705649920486306 0.2154232164209471,0.027798082133536094 0.28849096905403987,-0.04676791742000219 c0.07722017916612055,-0.07872746667971549 0.18747229663396744,-0.1239022948588021 0.30255926892417395,-0.1239022948588021 c0.11514848117742443,0 0.2254005986452713,0.04517188346699621 0.3025590126371438,0.1239022948588021 c0.07312958187909777,0.07456894426562868 0.1920589374676998,0.09388036615458313 0.28849077683876695,0.04676791742000219 c0.10182411848383945,-0.049730297782961654 0.2223027291692429,-0.05748078000493909 0.33044816724987613,-0.021307936686257162 c0.10814479736305738,0.03617284331868196 0.1949709988469239,0.11330604287264572 0.2381675370484437,0.2115728521571139 c0.04096748175744511,0.09302639964836222 0.14557808097577196,0.14856838121297086 0.2537228783388294,0.13461162378923042 c0.11415729108861052,-0.01470000275536148 0.23023545346763097,0.01583666162226241 0.3184251019514952,0.08385479937154955 c0.08812749887907086,0.06801754880686905 0.14105333345980275,0.16776613721523526 0.14508216557257744,0.2736662291804823 c0.003908377208639585,0.1003746341987886 0.08149607197588732,0.18536903714932962 0.18834021266131543,0.20627531510645378 c0.11273169448381987,0.02204411470886135 0.21046547196766655,0.08727243222368758 0.26797756295158565,0.17887476910512398 c0.05757488130628745,0.09165887535357262 0.07015473017750538,0.2020025378632587 0.03457952753283256,0.30283301349364405 c-0.033714558806330334,0.09547581116517109 0.007560467387204448,0.1997810470622483 0.10015056417745143,0.25298787193915634 c0.09779592708864,0.05622633265442147 0.16534806247573647,0.14822679461048238 0.18530385207250513,0.25236123720631526 c0.020016017048836165,0.10419157001038713 -0.009232740258442049,0.2118579002874663 -0.08019477458068298,0.29542765152866357 c-0.06724266879828142,0.07912618069675798 -0.06724266879828142,0.19009706688170327 -0.00006343103994349503,0.26922324757846094 zm-1.1071112753871053,2.942257378418386 c-0.10752586418542687,-0.022385701311349763 -0.21771647276605582,0.025978250061658457 -0.26630400864519754,0.11695218538300003 l-0.34079767824186835,0.6383652879241137 l-0.5114752295080086,-0.9838665906654809 c0.06395642835514811,-0.02517728837306503 0.12469325089498254,-0.05719219822007828 0.18077974527411086,-0.09564660446641539 c0.180841254161329,0.04990109108420584 0.376308809129023,0.04568426337072873 0.5562203820887548,-0.014470315212308946 c0.1798500640725148,-0.06015693435271 0.3324933377498723,-0.17249475589002672 0.43617617791932817,-0.31753066047933326 c0.08633028608067185,-0.00453485661924212 0.17117346666933483,-0.020907455841960448 0.2519884558627985,-0.04791046571108396 l0.4478269863065254,0.8613883585736054 zm-2.6653964534782393,0.11695218538300003 c-0.04065545229832917,-0.07605013444710843 -0.1243827591580469,-0.12236397726276817 -0.21356391808951247,-0.12236397726276817 c-0.01747685329837083,0 -0.03513951469354586,0.0017668272542501777 -0.05274002648392776,0.0054182702463672055 l-0.754414831056443,0.15722760158605098 l0.44782730666531295,-0.8613889475160229 c0.08081466883467606,0.0270619041109319 0.1657195505258299,0.043352051395118545 0.25198813550401084,0.04796347052871146 c0.10368316052824399,0.14503590458930657 0.2563262419903283,0.2573171876544872 0.4361759857040561,0.3174735330647794 c0.1799118292467629,0.06021347282484604 0.3753791919991841,0.06437199523893289 0.556220638375785,0.014529209454117285 c0.0560864943791284,0.03839315623485637 0.11682177919678241,0.07046754926609594 0.18077936084356586,0.0955894770518612 l-0.5114749732209782,0.9838671796078992 zm0,0 " id="path2444" stroke-width="0"/>
        <path style="stroke-width:14.24670601" d="m42.9402179700689,16.34620357171118 c-1.1497498767241525,0 -2.085192090397516,0.8597935025054356 -2.085192090397516,1.9166913087829283 c0,1.056897806277494 0.9354422136733641,1.9166913087829283 2.085192090397516,1.9166913087829283 c1.1498112574678554,0 2.0852537915000062,-0.8597935025054356 2.0852537915000062,-1.9166913087829283 c0,-1.056897806277494 -0.9354425340321506,-1.9166913087829283 -2.0852537915000062,-1.9166913087829283 zm0,3.3958808528684292 c-0.8872881232338358,0 -1.6092283762072075,-0.6635443431244336 -1.6092283762072075,-1.4791895440855007 c0,-0.81564461201865 0.7219402529733726,-1.4791895440855007 1.6092283762072075,-1.4791895440855007 c0.8873496321210544,0 1.6092896928791531,0.6635449320668514 1.6092896928791531,1.4791895440855007 c0,0.8156452009610676 -0.7219400607580999,1.4791895440855007 -1.6092896928791531,1.4791895440855007 zm0,0 " id="path2446" stroke-width="0"/>
        <path style="stroke-width:14.24670601" d="m42.57763627870122,18.891519060823118 c0.044621494088735586,0.04101394999532747 0.10517084266607026,0.06408753605099857 0.1682603801419908,0.06408753605099857 c0.06309145962864594,0 0.12363927048380019,-0.02307476394050733 0.1682607645725357,-0.06408753605099857 l1.0312547995080126,-0.9479204901777611 c0.09296171298385549,-0.08544965543971941 0.09296171298385549,-0.22393534245510247 0,-0.3093849978948225 c-0.09289956337906227,-0.08539252802516534 -0.243621965766009,-0.08539252802516534 -0.3365215291450716,0 l-0.862994034935478,0.7932571438800452 l-0.47429009581216375,-0.43590690862925896 c-0.0928996915225773,-0.0854490664973013 -0.2436215172637062,-0.0854490664973013 -0.336521208786284,0 c-0.09296171298385549,0.08539311696758342 -0.09296171298385549,0.22393534245510247 0,0.30932787048026805 zm0,0 " id="path2448" stroke-width="0"/>
      </g>
    </g>
    <g id="g2530" style="stroke-width:6.06304693">
      <g id="g2471" style="stroke-width:7.26650429" stroke-width="0">
        <g id="g2469" style="stroke-width:7.26650429" stroke-width="0">
          <path id="path2463" d="m115.53248191698103,83.29733019551743 l-3.920666171731664,-6.549658078626301 c-0.05125740601494546,-0.08562633816514448 -0.14919108738225045,-0.1388255067906171 -0.25550535463299895,-0.1388255067906171 c-0.10633348877800423,0 -0.20422231991504605,0.0531815003529303 -0.25550535463299895,0.1388255067906171 l-3.9206918004346747,6.549658078626301 c-0.0497196838344971,0.0830349915255775 -0.04798974638149257,0.18403272680269836 0.004485023026307723,0.26565425652487556 c0.05247476940780038,0.08159208260127324 0.147903245056125,0.13164629871418054 0.2510203316066913,0.13164629871418054 h7.841409229572353 c0.1031427152535739,0 0.1985775980776502,-0.05006010553708831 0.251045960309699,-0.13164629871418054 c0.05247476940780038,-0.08162152972217741 0.054140635103286115,-0.18261926499929826 0.004485023026307723,-0.26565425652487556 zm-7.603562051311503,-0.1388313962147979 l3.4273905249468397,-5.7255745106989355 l3.4273905249468397,5.7255745106989355 z" style="stroke-width:7.26650429" stroke-width="0"/>
          <path id="path2465" d="m110.95830304008605,79.34814736393835 v1.9375027670107414 c0,0.18549330399954528 0.16363286152696147,0.33592686585058656 0.36545249053505696,0.33592686585058656 c0.20180040748084005,0 0.365458897710809,-0.1504335618510408 0.365458897710809,-0.33592686585058656 v-1.9375027670107414 c0,-0.1855168616962686 -0.1636584902299688,-0.33592097642640556 -0.365458897710809,-0.33592097642640556 c-0.20181962900809558,0 -0.36545249053505696,0.15042767242686014 -0.36545249053505696,0.33592097642640556 z" style="stroke-width:7.26650429" stroke-width="0"/>
          <path id="path2467" d="m111.32375553062113,81.97031924966772 c-0.21222488242912957,0 -0.3849303048207363,0.15866697685584671 -0.3849303048207363,0.35383071536032146 c0,0.19509895483848533 0.17270542239160666,0.35383071536032146 0.3849303048207363,0.35383071536032146 c0.2122312896048814,0 0.3849367119964884,-0.15873176052183594 0.3849367119964884,-0.35383071536032146 c0,-0.19514018080775108 -0.172731051094614,-0.35383071536032146 -0.3849367119964884,-0.35383071536032146 z" style="stroke-width:7.26650429" stroke-width="0"/>
        </g>
      </g>
      <g id="g2473" style="stroke-width:6.06304693" stroke-width="0"/>
      <g id="g2475" style="stroke-width:6.06304693" stroke-width="0"/>
      <g id="g2477" style="stroke-width:6.06304693" stroke-width="0"/>
      <g id="g2479" style="stroke-width:6.06304693" stroke-width="0"/>
      <g id="g2481" style="stroke-width:6.06304693" stroke-width="0"/>
      <g id="g2483" style="stroke-width:6.06304693" stroke-width="0"/>
      <g id="g2485" style="stroke-width:6.06304693" stroke-width="0"/>
      <g id="g2487" style="stroke-width:6.06304693" stroke-width="0"/>
      <g id="g2489" style="stroke-width:6.06304693" stroke-width="0"/>
      <g id="g2491" style="stroke-width:6.06304693" stroke-width="0"/>
      <g id="g2493" style="stroke-width:6.06304693" stroke-width="0"/>
      <g id="g2495" style="stroke-width:6.06304693" stroke-width="0"/>
      <g id="g2497" style="stroke-width:6.06304693" stroke-width="0"/>
      <g id="g2499" style="stroke-width:6.06304693" stroke-width="0"/>
      <g id="g2501" style="stroke-width:6.06304693" stroke-width="0"/>
    </g>
    <rect style="opacity:1;fill:#ffffff;fill-opacity:1;stroke:none;stroke-width:0.37049186;stroke-miterlimit:4;stroke-dasharray:none;stroke-dashoffset:0;stroke-opacity:1" id="rect6317" width="3.163001775741577" height="0.5207968950271606" x="76.17893171310425" y="81.00496125221252"/>
    <path id="path2170" d="m71.45739505215434,79.0256459973402 l2.3048725807701755,1.8676493895523913 l-2.3085592959776715,1.8468705993907708 z" style="fill:#5d5d5d;fill-opacity:1;stroke:#5d5d5d;stroke-width:0.35961848;stroke-linecap:butt;stroke-linejoin:miter;stroke-miterlimit:4;stroke-dasharray:none;stroke-opacity:1"/>
    <rect style="opacity:1;fill:#ffffff;fill-opacity:1;stroke:none;stroke-width:0.37049183;stroke-miterlimit:4;stroke-dasharray:none;stroke-dashoffset:0;stroke-opacity:1" id="rect6322" width="2.010131597518921" height="3.058272123336792" x="42.73585844039917" y="53.26684784889221"/>
    <path id="path6333" d="M43.35428789182304,81.0728731614106 L43.34012009620889,26.136219757014373 " style="fill:none;stroke:#5d5d5d;stroke-width:0.42326775;stroke-linecap:butt;stroke-linejoin:miter;stroke-miterlimit:4;stroke-dasharray:1.26980317, 0.42326773;stroke-dashoffset:0;stroke-opacity:1"/>
    <path style="fill:none;stroke:#5d5d5d;stroke-width:0.42326775;stroke-linecap:butt;stroke-linejoin:miter;stroke-miterlimit:4;stroke-dasharray:1.26980317, 0.42326773;stroke-dashoffset:0;stroke-opacity:1" d="m102.55188459478276,80.77121878830721 l-59.76620400099878,0.09765934865092302 " id="path6337"/>
    <rect style="opacity:1;fill:#5d5d5d;fill-opacity:1;stroke:#5d5d5d;stroke-width:0;stroke-miterlimit:4;stroke-dasharray:none;stroke-dashoffset:0;stroke-opacity:1" id="rect6339" width="0" height="0.05158860236406326" x="68.90746259689331" y="-119.94214844703674" transform="translate(-27.810325622558594,-48.38616180419922) scale(1,-1) "/>
    <rect style="opacity:1;fill:#5d5d5d;fill-opacity:1;stroke:#5d5d5d;stroke-width:0.42326775;stroke-miterlimit:4;stroke-dasharray:1.26980319, 0.42326773;stroke-dashoffset:0;stroke-opacity:1" id="rect6344" width="4.2781863385243923e-7" height="0.11590706557035446" x="43.69874906539917" y="80.56051850318909"/>
    <path style="fill:#5d5d5d;fill-opacity:1;stroke:#5d5d5d;stroke-width:0.35961848;stroke-linecap:butt;stroke-linejoin:miter;stroke-miterlimit:4;stroke-dasharray:none;stroke-opacity:1" d="m41.3382800637558,54.69897151372067 l2.113383434762399,-2.050112839062654 l1.924953683311628,2.1870135071734693 z" id="path6320"/>
  </g></g></svg>